<svg xmlns="http://www.w3.org/2000/svg" width="264.051" height="135.359" viewBox="0 0 264.051 135.359"><defs><style>.a{fill:#dde8fd;}.b{fill:#fa7269;}.c{fill:#6d89cf;}.d{fill:#3662c1;}.e{fill:#af4e4e;}.f{fill:#e75755;}.g{fill:#a83f3f;}.h{fill:#93b3f4;}.i{fill:#3e4dce;}.j{fill:#bed2fa;}.k{fill:#ef7674;}.l{fill:#fc9796;}.m{fill:#ea8888;}.n{fill:#0b0754;}.o{fill:#060632;}.p{fill:#fc9290;}.q{fill:#9e332e;}.r{fill:#ed6966;}.s{fill:#120e59;}.t{fill:#010117;}</style></defs><g transform="translate(0 0)"><path class="a" d="M811.6,1231.43s-28.365-60.4,27.539-60.4c29.538,0,17.37-16.573,37.452-35.753s90.313-34.5,105.261,2.533-21.994,65.158,13.7,60.334c42.9-5.8,59.842,33.29,59.842,33.29Z" transform="translate(-798.411 -1096.111)"/><path class="b" d="M1680.975,1866.141c-2.647-1.934-8.056-.628-12.048.769a18.22,18.22,0,0,0-2.194-2.546c8.6-5.54,20.477-17.354,14.182-18.354-5.472-.869-12.858,9.765-16.8,16.238-4.1-2.757-10.379-4.784-19.968-4.081-24.886,1.824-44.326-14.228-58.657-8.874-11.394,4.257-21.836,6.642-31.906,5.827.433-7.357.527-21.8-5.249-23.3-5.865-1.521-.112,14.882,3.085,23.073q-1.125-.144-2.245-.344c-2.07-4.082-5.482-9.424-9.228-9.607-3.528-.172.826,4.631,5.111,8.7-12.315-2.586-26.924,7.425-27.166,19.262h153.747a14.248,14.248,0,0,0-1.479-4.006C1676.1,1868.782,1683.851,1868.242,1680.975,1866.141Z" transform="translate(-1438.055 -1738.486)"/><g transform="translate(60.353 125.269)"><rect class="c" width="40.522" height="9.15" transform="translate(12.494 0)"/><rect class="d" width="40.522" height="9.151"/></g><g transform="translate(120.007 92.243)"><g transform="translate(0 0)"><rect class="e" width="30.173" height="42.175" transform="translate(39.477 42.175) rotate(180)"/><rect class="f" width="30.173" height="42.175" transform="translate(30.173 42.175) rotate(180)"/></g><path class="g" d="M2197.652,1822.136l9.3,6.333v-6.333Z" transform="translate(-2167.479 -1822.136)"/></g><g transform="translate(4.209 78.102)"><path class="h" d="M1099.325,1902.671s-5.643,4.2-6.743,3.942,4.124-4.53,4.124-4.53c-1.966-.945-8.077-.353-8.077-.353s-2.036,6.564-3.039,6.046,2.1-5.72,2.1-5.72c-2.189-.132-4.875,1.494-4.875,1.494-3.676,2.9.242,7.474.242,7.474a11.175,11.175,0,0,1-3.076,4.317,9.7,9.7,0,0,0-3.546,6.834l.6.054s.954-4.081,2.688-6.011c.067-.07.165-.17.286-.292.282-.261.48-.458.613-.6a8.792,8.792,0,0,1,2.63-1.987,1.106,1.106,0,0,1-.024-.289c.008.092.016.188.024.289.2,2.31,4.679,4.328,7.436,4.743s1.905-.719.955-2.4-3.956-2.432-4.642-3.206.732-.776,2.394-.017,1.889,2.782,4.554,4.058,6.675-3.146,6.675-3.146c-2.124-.108-5.157-2.414-5.047-3.12s5.148,1.218,6.01,1.31,2.821-.979,3.124-4.449S1099.325,1902.671,1099.325,1902.671Z" transform="translate(-1046.496 -1879.189)"/><g transform="translate(0 9.949)"><path class="h" d="M810.016,1797.77s6.232-3.49,3.324-8.227c0,0-2.327-2.909-4.82-3.656,0,0,1.33,7.063,0,7.23s-.914-7.978-.914-7.978-6.565-3.158-9.141-2.909c0,0,4.072,6.9,2.742,6.731s-5.9-7.146-5.9-7.146-6.731-1.247-7.811,2.742.665,5.983,1.662,6.233,7.4.166,7.23,1-4.487,2.161-6.9,1.413c0,0,2.659,6.565,6.149,6.232s4.57-2.493,6.731-2.659,3.739.416,2.659,1-4.737.191-6.482,1.674-3.158,2.4.083,3.062,9.058.249,10.221-2.244Z" transform="translate(-787.155 -1781.631)"/><path class="i" d="M841.266,1839.988a13.256,13.256,0,0,1-1.662-6.066c-1.995-6.316-19.445-11.966-19.445-11.966,22.187,8.975,18.282,14.459,18.282,14.459.6.349,1.495,2.012,2.117,3.288.088.217.229.518.437.926h0c.085.184.152.335.2.441,1.142,2.858.537,7.795.537,7.795l.692.186A11.509,11.509,0,0,0,841.266,1839.988Z" transform="translate(-816.743 -1817.782)"/></g><g transform="translate(27.375)"><path class="j" d="M1057.077,1706.772s-8.216-4.6-4.382-10.844c0,0,3.067-3.834,6.353-4.82,0,0-1.753,9.311,0,9.53s1.2-10.516,1.2-10.516,8.654-4.162,12.05-3.834c0,0-5.368,9.092-3.615,8.873s7.777-9.42,7.777-9.42,8.873-1.643,10.3,3.615-.876,7.887-2.191,8.215-9.749.219-9.53,1.315,5.915,2.848,9.092,1.862c0,0-3.505,8.654-8.106,8.216s-6.025-3.286-8.873-3.505-4.929.548-3.505,1.314,6.244.251,8.544,2.207,4.163,3.161-.11,4.037-11.94.329-13.473-2.958Z" transform="translate(-1051.676 -1685.497)"/><path class="i" d="M1091.909,1738.652s-23,7.449-25.632,15.774a17.476,17.476,0,0,1-2.191,8,15.172,15.172,0,0,0-1.525,11.945l.913-.245s-.8-6.506.708-10.274c.062-.139.15-.338.262-.581h0c.275-.538.46-.934.577-1.22.82-1.682,2-3.875,2.79-4.334C1067.81,1757.712,1062.661,1750.482,1091.909,1738.652Z" transform="translate(-1060.875 -1733.151)"/></g><path class="k" d="M961.78,2081.759a16.093,16.093,0,0,0,16.093-16.093H945.687A16.093,16.093,0,0,0,961.78,2081.759Z" transform="translate(-929.281 -2026.323)"/><path class="l" d="M982.731,2081.635a16.1,16.1,0,0,1-18.092-15.97h4A16.1,16.1,0,0,0,982.731,2081.635Z" transform="translate(-946.271 -2026.322)"/><path class="k" d="M974.184,2210.477H945.524a1.986,1.986,0,0,0-1.985,1.986h32.63A1.985,1.985,0,0,0,974.184,2210.477Z" transform="translate(-927.355 -2156.147)"/><path class="e" d="M973.408,2065.665H940.821a.247.247,0,0,0,0,.494h32.587a.247.247,0,1,0,0-.494Z" transform="translate(-924.697 -2026.322)"/></g><g transform="translate(120.737 16.18)"><path class="m" d="M2222.089,1226.565c-.466-.071-1.872,1.229-1.872,1.229h0c-3,.347-7.39,1.144-8.969,1.448-1.12.216-4.131-.811-7.073-1.99-3.5-1.4-6.9-3.021-6.9-3.021-1.941-.1-4.146,3.443-.209,5.695a29.832,29.832,0,0,0,5.46,1.466h0c3.587.739,7.825,1.381,9.267,1.155a51.7,51.7,0,0,0,9.24-3.326h0l.007,0,.032-.015a3.45,3.45,0,0,1,1.321-.36,2.948,2.948,0,0,0,1.741-1.194C2224.172,1227.392,2222.556,1226.636,2222.089,1226.565Z" transform="translate(-2165.724 -1210.044)"/><path class="n" d="M2165.732,1414.613l-1.652.336s-7.562-8.5-8.729-12.073c-.625-1.911-4.617-2.737-8.789-3.815-3.632-.939-7.4-2.07-9.2-4.278-3.868-4.742,2.429-10.57,2.429-10.57s6.7,3.979,12.471,8.09c4.037,2.873,7.625,5.81,8.166,7.5C2161.741,1403.906,2164.526,1411.708,2165.732,1414.613Z" transform="translate(-2113.032 -1353.472)"/><path class="o" d="M2394.464,1675.853h.929c.312-.049.542-.139.861-.181a.862.862,0,0,1,.752.181l.009.009h3.949c.1-.142,0-.47-.089-.712a.562.562,0,0,0-.37-.338,4.263,4.263,0,0,1-2-.914c-.425-.384-2.054-1.413-2.054-1.413l-.009,0c-.036,0-.206.053-.947.678-.383.323-1.035-.456-1.035-.456a.93.93,0,0,0-.214.29.983.983,0,0,0-.085.606,3.931,3.931,0,0,1-.283,1.464c-.092.271-.169.463-.169.463S2393.665,1675.753,2394.464,1675.853Z" transform="translate(-2343.975 -1611.908)"/><path class="o" d="M2152.262,1392.3l-5.7,6.757c-3.632-.939-7.4-2.07-9.2-4.278-3.868-4.742,2.429-10.57,2.429-10.57S2146.486,1388.193,2152.262,1392.3Z" transform="translate(-2113.032 -1353.472)"/><path class="n" d="M2083.042,1406.038s-.46,1.449-1.208,3.63c-.946,2.757-2.355,6.683-3.884,10.323-.336.8-.678,1.586-1.022,2.344a26.437,26.437,0,0,1-3.718,6.423c-2.058,2.194-7.063,16.3-7.063,16.3l-1.247-.345s-1.738-12.044,4.42-18.9a.435.435,0,0,0,.125-.256,0,0,0,0,0,0,0c.082-1.015.375-5.557,1.013-10.161.157-1.129.334-2.261.534-3.347.012-.069.026-.138.038-.207.937-5.017,1.834-7.248,2.992-8.371l8.515,2.424Z" transform="translate(-2048.992 -1370.736)"/><path class="o" d="M2058.97,1792.857h.929c.312-.049.542-.139.861-.181a.861.861,0,0,1,.753.181l.009.009h3.949c.1-.142,0-.47-.09-.712a.562.562,0,0,0-.37-.338,4.26,4.26,0,0,1-2-.914c-.425-.384-2.054-1.413-2.054-1.413l-.009,0c-.036,0-.206.053-.947.678-.383.323-1.036-.456-1.036-.456a.933.933,0,0,0-.214.29.984.984,0,0,0-.085.606,3.93,3.93,0,0,1-.283,1.464c-.092.271-.17.463-.17.463S2058.171,1792.757,2058.97,1792.857Z" transform="translate(-2043.202 -1716.803)"/><path class="p" d="M1930.741,1265.194s-1.425,3.485-3.067,6.878c-1.382,2.852-2.917,5.639-3.89,6.233-1.373.839-5.154,3.2-7.607,4.968,0,0-1.914-.015-2.211.352s-.984,2.013-.783,2.18a2.95,2.95,0,0,0,2.092-.29,3.455,3.455,0,0,1,1.219-.623l.033-.01.008,0h0a51.713,51.713,0,0,0,9.071-3.762c1.219-.8,3.92-4.132,6.075-7.094h0a29.822,29.822,0,0,0,3.05-4.76C1936.124,1264.949,1932.11,1263.814,1930.741,1265.194Z" transform="translate(-1913.146 -1246.272)"/><path class="n" d="M2084.659,1092.412a7.162,7.162,0,0,0-.51-.659,1.6,1.6,0,0,0,.629-.094c.5-.207.728-1.795.653-2.265s-.77-1.833-1.626-1.969-1.742.816-1.742.816c.158-.687,1.608-1.083,1.608-1.083-2.986.55-2.833,2.542-2.812,2.725-2.733-.974-4.337,4.173-4.337,4.173l7.079,4.172s.019-1.137.694-1.063C2085.346,1097.277,2086.223,1094.691,2084.659,1092.412Z" transform="translate(-2059.613 -1087.157)"/><path class="p" d="M2114.8,1193.229c-1.624.766-3.78-.337-3.768-.349.139-.139.09-.556-.037-1.1a8.036,8.036,0,0,0-.986-2.274c-.116-.2-.232-.394-.371-.6l.186-.069,3.156-1.265s.51.917,1.044,1.752c.452.7.928,1.323,1.137,1.3C2115.169,1190.607,2117.257,1192.045,2114.8,1193.229Z" transform="translate(-2089.301 -1177.176)"/><path class="m" d="M2116.193,1190.593c-.081,1.125-.464,3.156-1.984,3.9a8.021,8.021,0,0,0-.986-2.274Z" transform="translate(-2092.517 -1179.889)"/><path class="p" d="M2081.109,1149.906s4.108-1.619,3.061-4.162-1.223-4.465-3.891-3.538-2.774,2.105-2.631,3.039S2080.014,1150.262,2081.109,1149.906Z" transform="translate(-2060.588 -1136.297)"/><path class="n" d="M2078.256,1142.867a3.653,3.653,0,0,0,2.451-1.035,5.254,5.254,0,0,1-2.774-2.212,4.4,4.4,0,0,0-3.712.483,1.061,1.061,0,0,0-.2.446c-.362-.119-.907-.088-1.221.936-.472,1.538,1.207,3.217,1.207,3.217.407-.115-.052-1.485-.116-2.217a3.459,3.459,0,0,1,.4-1.554c.2.261,2.2,2.776,4.646,2.876a10.309,10.309,0,0,1-2.466-1.324A3.155,3.155,0,0,0,2078.256,1142.867Z" transform="translate(-2056.202 -1134)"/><path class="d" d="M2080.572,1221.225c-.035-.123-.072-.25-.111-.381a9.634,9.634,0,0,0,1.037-3.107,6.235,6.235,0,0,0-.2-3.04,20.783,20.783,0,0,0-4.108-1.7l-.016,0-.05,0a17.454,17.454,0,0,0-4.02.386,1.99,1.99,0,0,1-.966,2.354,2.934,2.934,0,0,1-3.095-.241c-.048.032-.1.068-.152.105h0s-3.938,2.6-4.291,3.192-1.868,3.534-1.868,3.534.48,2.468,5.8,2.674a12.3,12.3,0,0,1,.881,2.958c.422,3.35-.068,5.993.424,7.948s9.368.84,10.975.464,1.246-2.093,1.37-3.76C2082.339,1230.5,2081.1,1223.073,2080.572,1221.225Z" transform="translate(-2047.253 -1199.932)"/><path class="i" d="M2220.933,1252.567a9.641,9.641,0,0,1-1.044,3.121,10.511,10.511,0,0,0-1.624-3.887A7.863,7.863,0,0,1,2220.933,1252.567Z" transform="translate(-2186.688 -1234.762)"/></g><g transform="translate(71.833 36.842)"><path class="m" d="M1894.7,1446.925a27.972,27.972,0,0,1,2.01-2.241,6.1,6.1,0,0,1,2.007-.568c.089.084.093.2-.1.376s-.932.6-.827.651,2.334-1.061,2.655-.688-.182,1.913-1.041,2.652-3.422,1.053-3.583,1.156C1894.459,1449.137,1894.7,1446.925,1894.7,1446.925Z" transform="translate(-1847.694 -1427.827)"/><path class="p" d="M1613.551,1380.7s2.375,2.818,5.4,1.639a9.164,9.164,0,0,0,.66-2.734c0-.143,0-.281.005-.413.016-1.307.06-2.04.06-2.04h0c-.138-.057-4.624-1.9-4.621-1.747A7.958,7.958,0,0,1,1613.551,1380.7Z" transform="translate(-1595.652 -1366.231)"/><path class="m" d="M1632.392,1383.343a7.018,7.018,0,0,0,4.113,2.944c.016-1.307.06-2.04.06-2.04h0C1636.438,1384.214,1632.263,1383.106,1632.392,1383.343Z" transform="translate(-1612.54 -1373.323)"/><path class="p" d="M1625.5,1319.014s-5.046,1.187-5.736-1.967-1.807-5.125,1.386-6.015,4.084.175,4.57,1.172S1626.8,1318.625,1625.5,1319.014Z" transform="translate(-1600.54 -1308.226)"/><path class="q" d="M1597.664,1296.487c-.069.044-1.155.378-3.211-3.718a3.568,3.568,0,0,1,.21-3.263c.752-1.229,3.42-2.2,5.637-2.616s2.749.827,3.271,2.08a6.766,6.766,0,0,0,2.13,2.4c-1.911,1.068-4.214-.459-5.011-.208s-1.079,1.508-1.139,1.911-.152.738-1.155.378-.453,1.421-.293,1.762C1598.1,1295.211,1598.239,1296.118,1597.664,1296.487Z" transform="translate(-1578.264 -1286.806)"/><g transform="translate(0 38.739)"><path class="o" d="M1447,2075.015h-3.055c-.64,0-1.352-.65-1.531-1.84s-1.495-1.84-1.78-2.814,1.175-2.345,1.175-2.345l.244-.318.254-.331,2.42.577s.06.584.1,1.328c.026.537.04,1.158.01,1.7-.071,1.3.359,2.7,1.5,2.95S1447,2075.015,1447,2075.015Z" transform="translate(-1440.598 -2025.328)"/><path class="o" d="M1633.019,2102.222h-8.1a.718.718,0,0,1-.172-.052c-.541-.279-.371-2.41-.306-3.069.012-.122.021-.194.021-.194s2.848-2.345,3.24-.549c.012.056.026.111.042.165h0c.494,1.68,2.7,2.443,3.981,2.656A1.4,1.4,0,0,1,1633.019,2102.222Z" transform="translate(-1605.347 -2052.504)"/><path class="r" d="M1587.53,1682.523s-.433,5.4-.941,11.882c-.691,8.812-1.522,19.635-1.6,21.685-.142,3.561-.712,9.256-.712,9.256a4.477,4.477,0,0,1-4.058.783,93.17,93.17,0,0,1-3.1-16.732l-.032-.425c-.641-8.757-1.637-27.2-1.637-27.2Z" transform="translate(-1561.49 -1679.639)"/><path class="f" d="M1587.53,1682.523s-.433,5.4-.941,11.882l-9.474,14.991-.032-.425c-.641-8.757-1.637-27.2-1.637-27.2Z" transform="translate(-1561.49 -1679.639)"/><path class="r" d="M1475.156,1664.662s-7.8,19.543-12.922,28.727-6.728,11.747-6.728,11.747-2.937-1.175-3.2-1.976c0,0,1.96-17.73,5.393-22.053,1.94-2.442,4.218-9.771,4.325-12.334s.694-7.635.694-7.635Z" transform="translate(-1451.092 -1661.138)"/></g><g transform="translate(2.396 14.784)"><path class="m" d="M1467.569,1655.389a26.408,26.408,0,0,1-.35,2.815,5.76,5.76,0,0,1-1.248,1.52c-.114-.017-.182-.108-.125-.345s.4-.967.29-.948-1.236,2.077-1.685,1.961-.889-1.579-.621-2.612,2.082-2.656,2.151-2.823C1466.569,1653.545,1467.569,1655.389,1467.569,1655.389Z" transform="translate(-1463.749 -1631.165)"/><path class="o" d="M1483.277,1454.507c.863.277,1,.214,1,.214s4.2-7.646,4.625-8.346,8.917-8.574,8.917-8.574l-2.182-8.137s-9.658,12.507-10.7,14.3c-1.723,2.966-2.733,9.853-2.733,9.853A2.525,2.525,0,0,0,1483.277,1454.507Z" transform="translate(-1480.294 -1429.663)"/></g><path class="s" d="M1563.53,1425.233c-.03,1.671-.127,3.55-.258,5.458l-.024.339c-.084,1.182-.175,2.367-.279,3.522-.042.463-.086.921-.133,1.371l-.007.061c0,.168-.024.351-.043.517-.426,4.327-.872,7.746-.955,7.8a.486.486,0,0,1-.332.085c-1.135-.143-4.521.115-7.293-.488a21.016,21.016,0,0,1-6.488-2.69c-.283-.167-.929-.611-.876-.942.052-.364.147-.891.268-1.553a83.972,83.972,0,0,0,1.394-10.895q.072-1.295.209-2.554a38.752,38.752,0,0,1,1.13-6.1c.95-3.422,2.347-6.043,4.1-7.068.229-.128,1.461.656,2.592,1.381a5,5,0,0,0,3.215.762l.941,1.041a10.514,10.514,0,0,1,2.686,5.6q.037.278.064.592A36.8,36.8,0,0,1,1563.53,1425.233Z" transform="translate(-1535.844 -1399.117)"/><path class="o" d="M1640.868,1489.917c-.03,1.671-.127,3.55-.258,5.458l-.024.339c-6.482-4.057-7.481-11.482-7.481-11.482a17.734,17.734,0,0,1,7.675,1.922A36.772,36.772,0,0,1,1640.868,1489.917Z" transform="translate(-1613.182 -1463.801)"/><g transform="translate(19.345 16.452)"><path class="s" d="M1656.175,1448.628c-.334-.9-.854-.845-.854-.845s-9.638,2.4-10.5,2.5-10.379-3.715-10.379-3.715-3.745-1.68-5.5-.146a4.19,4.19,0,0,0-1.237,4.441,4.241,4.241,0,0,0,3.584,3.16c3.881.494,11.625,1.425,13.248,1.2,3.613-.5,11.8-5.228,11.8-5.228A3.033,3.033,0,0,0,1656.175,1448.628Z" transform="translate(-1627.526 -1445.78)"/></g></g><g transform="translate(167.194 0)"><g transform="translate(23.374 34.548)"><path class="n" d="M2780.651,1638.9s1.339,1.241,1.078,2.123-1.469,1.469-1.633,2.547-.816,1.666-1.4,1.666h-2.8s-.433-.758.613-.987,1.439-1.5,1.374-2.671a21.057,21.057,0,0,1,.1-2.743l2.221-.522Z" transform="translate(-2756.356 -1599.639)"/><path class="n" d="M2595.524,1669.149a5.169,5.169,0,0,1-1.268.147h-6.338c.021-.189.169-.861,1.205-1.028,1.171-.19,3.2-.871,3.651-2.369.015-.048.028-.1.039-.146.359-1.6,2.972.49,2.972.49s.008.064.019.173C2595.865,1667,2596.02,1668.9,2595.524,1669.149Z" transform="translate(-2587.918 -1623.701)"/><path class="c" d="M2602.564,1284.26s.4,4.951.863,10.9c.634,8.084,1.4,18.014,1.471,19.9.131,3.266.654,8.492.654,8.492a4.107,4.107,0,0,0,3.723.718,85.492,85.492,0,0,0,2.844-15.351l.029-.39c.588-8.034,1.5-24.952,1.5-24.952Z" transform="translate(-2601.048 -1281.614)"/><path class="d" d="M2602.564,1284.26s.4,4.951.863,10.9l8.692,13.754.029-.39c.588-8.034,1.5-24.952,1.5-24.952Z" transform="translate(-2601.048 -1281.614)"/><path class="c" d="M2620.074,1267.872s7.152,17.93,11.855,26.356,6.173,10.777,6.173,10.777,2.695-1.078,2.939-1.812c0,0-1.8-16.267-4.948-20.232-1.78-2.241-3.87-8.965-3.968-11.316s-.637-7.005-.637-7.005Z" transform="translate(-2616.746 -1264.639)"/></g><g transform="translate(0 13.759)"><path class="p" d="M2366.7,1198.259a21.488,21.488,0,0,0-2.266-.421,4.675,4.675,0,0,0-1.484.593c-.015.093.039.168.236.181s.847-.07.806.009-1.912.446-1.933.823,1,1.076,1.871,1.123a9.07,9.07,0,0,0,2.715-.972C2367.878,1199.487,2366.7,1198.259,2366.7,1198.259Z" transform="translate(-2362.054 -1183.961)"/><path class="f" d="M2396.977,1078.548c-.278-.886-.213-1.027-.213-1.027s7.864-4.252,8.584-4.683,8.847-9.08,8.847-9.08l8.324,2.291s-12.882,9.813-14.728,10.87c-3.051,1.746-10.115,2.734-10.115,2.734A2.585,2.585,0,0,1,2396.977,1078.548Z" transform="translate(-2393.166 -1063.757)"/></g><path class="p" d="M2531,989.6s-2.918,5.134-5.771,5.8a7.792,7.792,0,0,1,.813-2.9c-.284-.335-.534-.644-.75-.919a17.217,17.217,0,0,1-1.059-1.483l.968-2.6.657-1.766a8.489,8.489,0,0,0,1.026,1.479A6.982,6.982,0,0,0,2531,989.6Z" transform="translate(-2507.453 -980.045)"/><path class="m" d="M2526.888,1000.013a5.416,5.416,0,0,1-1.592,4.373,17.216,17.216,0,0,1-1.059-1.483l.968-2.6A5.535,5.535,0,0,1,2526.888,1000.013Z" transform="translate(-2507.453 -992.85)"/><path class="p" d="M2484.843,958.751s4.36-1.7,3.26-4.4-1.279-4.736-4.109-3.765-2.948,2.22-2.8,3.21S2483.68,959.124,2484.843,958.751Z" transform="translate(-2468.827 -948.32)"/><path class="r" d="M2552.121,1043.272c-1.759,2.529-14.91,5.908-14.754,4.157a18.98,18.98,0,0,0,0-3.453q-.049-.563-.14-1.193a27.507,27.507,0,0,0-2.9-8.681q-.2-.385-.414-.777a26.757,26.757,0,0,1-1.823-4.1c-.911-2.633-1.278-5.152-.819-6.8a.212.212,0,0,1,.008-.023c2.749-1.271,3.814-6.2,3.814-6.2s9.379,1.684,14.632,14.185C2549.725,1030.392,2553.651,1041.071,2552.121,1043.272Z" transform="translate(-2513.582 -1007.369)"/><path class="f" d="M2565.559,1135.728q-.049-.562-.14-1.193a27.507,27.507,0,0,0-2.9-8.68,12.27,12.27,0,0,1,1.184-4.064c1.87-2.8,2.96-3.242,2.96-3.242S2569.47,1130.378,2565.559,1135.728Z" transform="translate(-2541.775 -1099.12)"/><g transform="translate(3.591 11.296)"><path class="p" d="M2402.166,1257.347a28.017,28.017,0,0,0-3,.281,6.109,6.109,0,0,0-1.652,1.275c.014.121.109.2.362.143s1.039-.391,1.015-.277-2.241,1.244-2.133,1.724,1.646.993,2.75.742,2.883-2.123,3.062-2.191C2404.09,1258.466,2402.166,1257.347,2402.166,1257.347Z" transform="translate(-2396.758 -1234.849)"/><path class="r" d="M2441.9,1063.438c-.52-.84-.145-1.223-.145-1.223s8.015-6.275,8.643-6.909,3.538-10.728,3.538-10.728,1-4.085,3.347-4.536a4.294,4.294,0,0,1,4.369,1.8,4.346,4.346,0,0,1,.294,4.888c-2.046,3.448-6.174,10.292-7.38,11.462-2.683,2.6-11.659,6.24-11.659,6.24A3.11,3.11,0,0,1,2441.9,1063.438Z" transform="translate(-2436.984 -1039.957)"/></g><path class="n" d="M2474.65,931.829c.031-.06.119-.125.336-.191a.907.907,0,0,0-.439-.016,1.153,1.153,0,0,0-.978-.811.688.688,0,0,1,.438.4c-.765-.485-2.183-.626-5.721.553-4.665,1.554-2.334,4.261-1.627,4.478s2.008-1.176,3.179-1.366,1.8,1.44,2.25,1.576.193-.236.66-.607.736.5.726,1.116.9,1.2.9,1.2l.534-.98c.534-.98.389-4.539-.122-5.179Z" transform="translate(-2454.749 -930.81)"/></g><path class="t" d="M.471,0H263.58a.471.471,0,0,1,.471.471v0a.471.471,0,0,1-.471.471H.471A.471.471,0,0,1,0,.471v0A.471.471,0,0,1,.471,0Z" transform="translate(0 134.417)"/><path class="j" d="M1733.715,2140.27v5.279l-12.495-5.279Z" transform="translate(-1620.345 -2015.104)"/><rect class="c" width="41.322" height="54.275" transform="translate(178.978 80.142)"/><rect class="d" width="41.323" height="54.275" transform="translate(166.237 80.142)"/><path class="j" d="M2764.842,1705.213v8.116l-12.741-8.116Z" transform="translate(-2544.542 -1625.07)"/></g></svg>