<svg xmlns="http://www.w3.org/2000/svg" xmlns:xlink="http://www.w3.org/1999/xlink" width="30" height="30" viewBox="0 0 30 30"><defs><style>.a{fill:#4965de;}.b{clip-path:url(#a);}</style><clipPath id="a"><rect class="a" width="30" height="30" transform="translate(405 2606)"/></clipPath></defs><g class="b" transform="translate(-405 -2606)"><g transform="translate(405 2606)"><path class="a" d="M12.5,30h5a.5.5,0,0,0,.5-.5V24.809l.724-.362A.5.5,0,0,0,19,24V21a2,2,0,0,0-1.722-1.981A2.454,2.454,0,0,0,17.5,18a2.5,2.5,0,0,0-5,0,2.454,2.454,0,0,0,.222,1.019A2,2,0,0,0,11,21v3a.5.5,0,0,0,.277.448l.723.361V29.5a.5.5,0,0,0,.5.5ZM12,21a1,1,0,0,1,1-1h.689a.5.5,0,0,0,.329-.876A1.481,1.481,0,0,1,13.5,18a1.5,1.5,0,1,1,3,0,1.477,1.477,0,0,1-.519,1.124.5.5,0,0,0,.33.876H17a1,1,0,0,1,1,1v2.691l-.723.362A.5.5,0,0,0,17,24.5V29H13V24.5a.5.5,0,0,0-.276-.448L12,23.691Zm0,0"/><path class="a" d="M14.5,23.5h1V21.809l.724-.361-.447-.9L15,20.941l-.776-.388-.447.9.723.361Zm0,0"/><path class="a" d="M3,30H8a.5.5,0,0,0,.5-.5v-11h2a.5.5,0,0,0,.384-.82l-5-6a.517.517,0,0,0-.768,0l-5,6A.5.5,0,0,0,.5,18.5h2v11A.5.5,0,0,0,3,30ZM1.568,17.5,5.5,12.781,9.432,17.5H8a.5.5,0,0,0-.5.5V29h-4V18a.5.5,0,0,0-.5-.5Zm0,0"/><path class="a" d="M20.453,12.712a.5.5,0,0,0-.069-.532l-5-6a.517.517,0,0,0-.768,0l-5,6A.5.5,0,0,0,10,13h2v2.5h1v-3a.5.5,0,0,0-.5-.5H11.067L15,7.281,18.932,12H17.5a.5.5,0,0,0-.5.5v3h1V13h2a.5.5,0,0,0,.453-.288Zm0,0"/><path class="a" d="M22,30h5a.5.5,0,0,0,.5-.5V7h2a.5.5,0,0,0,.384-.82l-5-6a.517.517,0,0,0-.768,0l-5,6A.5.5,0,0,0,19.5,7h2V29.5a.5.5,0,0,0,.5.5ZM20.567,6,24.5,1.281,28.432,6H27a.5.5,0,0,0-.5.5V29h-4V6.5A.5.5,0,0,0,22,6Zm0,0"/><path class="a" d="M1.5,4h1V2.5H4v-1H2.5V0h-1V1.5H0v1H1.5Zm0,0"/><path class="a" d="M7.5,5H9V6.5h1V5h1.5V4H10V2.5H9V4H7.5Zm0,0"/><path class="a" d="M.5,10h1v1H.5Zm0,0"/><path class="a" d="M17,.5h1v1H17Zm0,0"/><path class="a" d="M29,28.5h1v1H29Zm0,0"/></g></g></svg>