<svg xmlns="http://www.w3.org/2000/svg" xmlns:xlink="http://www.w3.org/1999/xlink" width="30" height="30" viewBox="0 0 30 30"><defs><style>.a{fill:#4965de;}.b{clip-path:url(#a);}</style><clipPath id="a"><rect class="a" width="30" height="30" transform="translate(1070 2430)"/></clipPath></defs><g class="b" transform="translate(-1070 -2430)"><g transform="translate(1070 2430)"><path class="a" d="M8.39,12.831l2.739-3.3a.439.439,0,1,0-.676-.562L8.106,11.8l-.513-.834a.439.439,0,0,0-.748.461l.834,1.355A.44.44,0,0,0,8.39,12.831Z"/><path class="a" d="M6.844,17.226l.834,1.355a.439.439,0,0,0,.712.051l2.739-3.3a.439.439,0,1,0-.676-.562L8.106,17.6l-.513-.834a.439.439,0,1,0-.748.461Z"/><path class="a" d="M6.844,23.066l.834,1.355a.439.439,0,0,0,.712.051l2.739-3.3a.439.439,0,1,0-.676-.562L8.106,23.439l-.513-.834a.439.439,0,1,0-.748.461Z"/><path class="a" d="M26.279,24.809a.439.439,0,0,0-.439.439v3.2a.675.675,0,0,1-.674.674H4.834a.675.675,0,0,1-.674-.674V9.188a.439.439,0,0,0-.879,0V28.447A1.555,1.555,0,0,0,4.834,30H25.166a1.555,1.555,0,0,0,1.553-1.553v-3.2A.439.439,0,0,0,26.279,24.809Z"/><path class="a" d="M25.166,3.386h-2.15V1.57a1.57,1.57,0,1,0-3.141,0V3.386H16.57V1.57a1.57,1.57,0,1,0-3.141,0V3.386H10.124V1.57a1.57,1.57,0,1,0-3.141,0V3.386H4.834A1.555,1.555,0,0,0,3.281,4.939v2.2a.439.439,0,0,0,.879,0v-2.2a.675.675,0,0,1,.674-.674h2.15v.7a1.57,1.57,0,0,0,3.141,0v-.7H13.43v.7a1.57,1.57,0,0,0,3.141,0v-.7h3.305v.7a1.57,1.57,0,1,0,3.141,0v-.7h2.15a.675.675,0,0,1,.674.674V23.2a.439.439,0,0,0,.879,0V4.939a1.555,1.555,0,0,0-1.553-1.553ZM9.245,4.963a.691.691,0,0,1-1.383,0V1.57a.691.691,0,1,1,1.383,0Zm6.446,0a.691.691,0,0,1-1.383,0V1.57a.691.691,0,1,1,1.383,0Zm6.446,0a.691.691,0,1,1-1.383,0V1.57a.691.691,0,1,1,1.383,0Z"/><path class="a" d="M12.993,13.194H22.25a1.377,1.377,0,0,0,0-2.754H12.993a1.377,1.377,0,0,0,0,2.754Zm0-1.875H22.25a.5.5,0,0,1,0,1H12.993a.5.5,0,0,1,0-1Z"/><path class="a" d="M12.993,19.008H22.25a1.377,1.377,0,0,0,0-2.754H12.993a1.377,1.377,0,0,0,0,2.754Zm0-1.875H22.25a.5.5,0,0,1,0,1H12.993a.5.5,0,0,1,0-1Z"/><path class="a" d="M12.993,24.821H22.25a1.377,1.377,0,0,0,0-2.754H12.993a1.377,1.377,0,0,0,0,2.754Zm0-1.875H22.25a.5.5,0,0,1,0,1H12.993a.5.5,0,0,1,0-1Z"/></g></g></svg>