<svg xmlns="http://www.w3.org/2000/svg" width="267" height="140.439" viewBox="0 0 267 140.439"><defs><style>.a{fill:#d5e2f4;opacity:0.31;}.b{fill:#1e51a0;}.c{fill:#264496;}.d{fill:#b1c8e8;}.e{fill:#80a3d6;}.f{fill:#101429;}.g{fill:#151946;}.h{fill:#0d1227;}.i{fill:#f07b7e;}.j{fill:#e37275;}.k{fill:#85a7d7;}.l{fill:#5277ba;}.m{fill:#fff;}.n{fill:#d9e5f5;}.o{fill:#9a3435;}.p{fill:#1c1f4b;}.q{fill:#f49897;}.r{fill:#15161c;}.s{fill:#83a5d7;}.t{fill:#e86762;}.u{fill:#e55052;}.v{fill:#090f25;}.w{fill:#8d2725;}.x{fill:#e4797b;}.y{fill:#121744;}.z{fill:#de3e42;}.aa{fill:#e68585;}.ab{fill:#e27174;}.ac{fill:#962c30;}.ad{fill:#0c1341;}.ae{fill:#191d49;}.af{fill:#8b2222;}.ag{fill:#9f3f3d;}.ah{fill:#3f61ab;}.ai{fill:#ed5a55;}</style></defs><path class="a" d="M161.641,425.055s-31.068-33.358-5.254-69.472c22.9-32.043,49.608-29.853,69.2-16.849,8.345,5.538,32.4.682,52.88-31.922,27.925-44.465,124.722-17.5,107.073,50.913-8.541,33.105,25.993,34.309,8.4,67.4Z" transform="translate(-145.108 -284.951)"/><g transform="translate(157.609 103.962)"><g transform="translate(2.998 14.307)"><path class="b" d="M634.456,642.46s2.507-2.924.154-4.782a6.668,6.668,0,0,0-3.119-.956s1.985,3.329,1.343,3.66-1.945-3.869-1.945-3.869-3.91-.379-5.168.225c0,0,3.343,2.736,2.639,2.9s-4.315-2.522-4.315-2.522-3.639.619-3.445,2.839,1.448,2.906,2,2.846,3.775-1.29,3.845-.838-1.87,1.927-3.23,2c0,0,2.566,2.83,4.271,2.013s1.851-2.111,2.914-2.6,1.97-.484,1.531.011-2.362.976-2.971,2.052-1.153,1.8.611,1.535,4.632-1.556,4.758-3.035Z" transform="translate(-620.593 -636.396)"/><g transform="translate(1.796 3.601)"><path class="b" d="M625.932,647.12s9.884-.381,12.067,2.446a7.153,7.153,0,0,0,1.968,2.763l.232.631s-1.713-1.806-2.326-1.916C637.874,651.044,638.832,647.542,625.932,647.12Z" transform="translate(-625.932 -647.103)"/><path class="b" d="M666.561,662.149a6.208,6.208,0,0,1,2.269,4.372l-.385.034s-.678-2.9-1.9-4.032S666.561,662.149,666.561,662.149Z" transform="translate(-652.526 -656.923)"/></g></g><g transform="translate(23.005 6.366)"><path class="c" d="M682.7,623.114s-3.988-2.233-2.127-5.264a7.917,7.917,0,0,1,3.084-2.34s-.851,4.519,0,4.626.585-5.1.585-5.1,4.2-2.02,5.849-1.861c0,0-2.605,4.413-1.755,4.307s3.775-4.573,3.775-4.573,4.307-.8,5,1.755-.425,3.828-1.064,3.988-4.732.106-4.626.638,2.871,1.382,4.414.9c0,0-1.7,4.2-3.935,3.988s-2.924-1.595-4.307-1.7-2.393.266-1.7.638,3.031.122,4.147,1.071,2.02,1.534-.053,1.96-5.8.159-6.541-1.435Z" transform="translate(-680.076 -612.786)"/><g transform="translate(0.515 2.67)"><path class="c" d="M698.215,620.726s-11.166,3.616-12.442,7.657a8.481,8.481,0,0,1-1.063,3.881v.8s1.17-2.712,1.807-3.084C686.516,629.978,684.017,626.469,698.215,620.726Z" transform="translate(-683.666 -620.726)"/><path class="c" d="M682.651,654.052a7.365,7.365,0,0,0-.74,5.8l.443-.119s-.43-3.506.471-5.269S682.651,654.052,682.651,654.052Z" transform="translate(-681.609 -642.513)"/></g></g><path class="d" d="M630.96,607.473s5.257-2.944,2.8-6.939c0,0-1.963-2.453-4.065-3.084,0,0,1.121,5.958,0,6.1s-.771-6.729-.771-6.729-5.537-2.664-7.71-2.453c0,0,3.434,5.817,2.313,5.677s-4.977-6.028-4.977-6.028-5.677-1.051-6.589,2.313.561,5.047,1.4,5.257,6.238.14,6.1.841-3.785,1.822-5.817,1.192c0,0,2.243,5.537,5.186,5.257s3.855-2.1,5.677-2.243,3.154.35,2.243.841-4,.161-5.467,1.412-2.664,2.022.07,2.583,7.64.21,8.621-1.893Z" transform="translate(-611.678 -593.86)"/><g transform="translate(2.881 3.52)"><path class="c" d="M620.244,604.325s14.719,4.766,16.4,10.093a11.184,11.184,0,0,0,1.4,5.117v1.051s-1.542-3.575-2.383-4.065C635.664,616.521,638.958,611.9,620.244,604.325Z" transform="translate(-620.244 -604.325)"/><path class="c" d="M671.788,648.255a9.708,9.708,0,0,1,.976,7.643l-.584-.157s.567-4.622-.621-6.946S671.788,648.255,671.788,648.255Z" transform="translate(-653.985 -633.045)"/></g><path class="e" d="M649.526,679a10.3,10.3,0,0,0,10.3-10.3H639.229A10.3,10.3,0,0,0,649.526,679Z" transform="translate(-629.962 -643.532)"/><path class="d" d="M654.536,678.926a10.3,10.3,0,0,1-11.576-10.219h2.558A10.3,10.3,0,0,0,654.536,678.926Z" transform="translate(-632.439 -643.532)"/><path class="e" d="M659.685,698.374H638.806a1.27,1.27,0,0,1,1.27-1.27h18.339a1.27,1.27,0,0,1,1.27,1.27Z" transform="translate(-629.682 -662.378)"/><rect class="e" width="21.168" height="0.316" transform="translate(8.928 25.175)"/></g><g transform="translate(27.415 37.756)"><path class="f" d="M243.019,398.643c-.029-.161-.407-1.882-3.07-1.589,0,0,1.326-.034,1.634.506a2.156,2.156,0,0,0-1.679-.246c-.69.332-.93,1.66-.874,2.077s.652,1.7,1.128,1.749a1.413,1.413,0,0,0,.555-.08,6.368,6.368,0,0,0-.264.687c-.742,2.324.656,4.287,1.517,3.923.552-.234.857.722.857.722l4.922-5.325S245.081,397.126,243.019,398.643Z" transform="translate(-234.169 -397.021)"/><path class="g" d="M250.549,519.127l-1.2.446s-5.2-7.212-5.84-13.557a9.638,9.638,0,0,1,.171-3.244s-.051-.29-.14-.8c-.041-.24-.092-.528-.149-.858-.169-.969-.4-2.294-.668-3.8-.612-3.473-1.4-7.912-2.02-11.175l.323-.1,3.49-1.126.721-2.291,2.6-.684s.581,1.135,1.1,6.5c.1.7.183,1.48.248,2.321a45.956,45.956,0,0,1-.247,9.4q-.179,1.4-.456,2.884a12.868,12.868,0,0,0-.1,2.848A95.36,95.36,0,0,0,250.549,519.127Z" transform="translate(-235.287 -453.369)"/><path class="h" d="M249.187,490.749l-5.644,11.219c-.041-.24-.092-.528-.149-.858-.169-.969-.4-2.294-.668-3.8-.612-3.473-1.4-7.912-2.02-11.175l.323-.1,3.49-1.126.721-2.291,2.6-.684s.581,1.135,1.1,6.5C249.035,489.131,249.121,489.907,249.187,490.749Z" transform="translate(-235.287 -453.369)"/><path class="g" d="M236.413,480.791l-.131-1.12c-2.189.582-8.037-1.625-8.037-1.625s-2.12,1.864-1.842,6.332c.136,2.181.384,11.447.643,14.189.094.994.176,1.7.209,1.984v0a.392.392,0,0,1-.064.243,12.875,12.875,0,0,0-.957,2.012c-2.544,6.78.392,15.13.392,15.13l.762-.307s1.671-9.293,3.029-13.4a8.131,8.131,0,0,1,.654-1.571,17.747,17.747,0,0,0,1.635-4.361,107.261,107.261,0,0,0,2.2-11.569C234.977,486.736,236.413,480.791,236.413,480.791Z" transform="translate(-224.995 -450.794)"/><path class="i" d="M259.49,445.481a1.515,1.515,0,0,0,.06.176,16.8,16.8,0,0,0,3.417,5.863,13.514,13.514,0,0,0,4.15,1.7c1.058.31,2,.535,2.389.633.123.032.195.044.195.044l.355-1.049s-.827-.518-1.837-1.2a19.073,19.073,0,0,1-3.491-2.747c-.777-1.254-1.293-5.085-1.959-7.672-.033-.14-.067-.274-.1-.408-.025-.1-.051-.193-.077-.288a.239.239,0,0,0-.024-.069c-.036-.108-.065-.205-.094-.294,0-.008-.006-.019-.013-.03a7.869,7.869,0,0,0-.449-1.029c-.195-.3-.407-.451-.637-.4a2.875,2.875,0,0,0-.714.371c-.084.057-.173.123-.263.2a.675.675,0,0,0-.152.129,3.78,3.78,0,0,0-.9,1.2,4.674,4.674,0,0,0-.415,1.434A7.979,7.979,0,0,0,259.49,445.481Z" transform="translate(-247.359 -424.684)"/><path class="i" d="M248.618,430.854a6.807,6.807,0,0,1-2.41.946c-3.694.745-5.013-2.4-5.482-4.541a3.151,3.151,0,0,1,1.255-.347c.266-.024.546-.037.777-.042.421-.3,1.072-1.579,1.264-3.581l.172.051,2.87.873s-.158.916-.248,1.783a3.442,3.442,0,0,0,.029,1.491c.224.056.359.091.359.091l0,0A18.636,18.636,0,0,1,248.618,430.854Z" transform="translate(-235.3 -414.454)"/><path class="j" d="M253.9,424.316s-.159.915-.248,1.783c-1.634-.211-2.351-1.792-2.622-2.656Z" transform="translate(-242.141 -414.556)"/><path class="i" d="M253.738,415.379s-3.884-.324-3.645-2.74-.1-4.084,2.389-3.98,2.879,1.074,3,1.9S254.754,415.4,253.738,415.379Z" transform="translate(-241.51 -404.742)"/><path class="k" d="M243.026,437.741c-.025-.1-.051-.193-.077-.288a.24.24,0,0,0-.024-.069c-.036-.108-.065-.205-.095-.294,0-.008-.006-.019-.013-.03a7.868,7.868,0,0,0-.449-1.029,1.283,1.283,0,0,0-.438-.481,8.013,8.013,0,0,0-2.31-.824l0,0c.039.089,1.073,2.447.9,3.007s-5.184-.46-5.5-.815a9.774,9.774,0,0,1-.59-2.6c-.022-.162-.035-.261-.035-.261a7.05,7.05,0,0,0-2.752.566,7.762,7.762,0,0,1,.8,1.723c.027.088.051.176.073.265a3.64,3.64,0,0,1,.1.565,1.1,1.1,0,0,1-.245.726,5.315,5.315,0,0,1-.63.7c-.165.16-.343.329-.526.511h0a48.5,48.5,0,0,1,.565,4.916,3.338,3.338,0,0,1-.274,1.458,3.4,3.4,0,0,1-.283.525c-.879,1.33-2.4,3.946-1.778,5.347.23,1.373,12.11,1.5,11.642.02,0,0,.525-8.668,1.173-10.836.023-.079.044-.156.061-.235a4.731,4.731,0,0,0-.178-2.33A4.1,4.1,0,0,1,243.026,437.741Z" transform="translate(-227.717 -421.602)"/><path class="f" d="M253.17,408.236c-.527-.787-1-.673-1.271-.48a2.724,2.724,0,0,0-3.541.209,4.636,4.636,0,0,1-1.782,2.575,3.223,3.223,0,0,0,2.334.252,2.782,2.782,0,0,0,1.411-.779,9.082,9.082,0,0,1-1.747,1.746c2.036-.7,3.089-3.333,3.2-3.612a3.05,3.05,0,0,1,.733,1.211c.132.635.092,1.909.465,1.9C252.967,411.261,253.96,409.415,253.17,408.236Z" transform="translate(-239.182 -403.772)"/><path class="l" d="M241.328,456.6c-2.295.308-4.581-1.79-6.042-3.519a3.338,3.338,0,0,0,.274-1.458,48.5,48.5,0,0,0-.565-4.916h0c.183-.182.361-.35.526-.511a5.316,5.316,0,0,0,.63-.7C238.487,448.393,244.439,456.178,241.328,456.6Z" transform="translate(-231.496 -429.19)"/><path class="i" d="M292.784,481.463c-.516.149-1.291.789-2.344.221a17.317,17.317,0,0,0-1.959-.862c-.158-.049-.247-.083-.247-.083l.588-1.222a.242.242,0,0,0,.052.022,7.773,7.773,0,0,0,2.376.5c.78-.087,1.946.976,1.946.976S293.3,481.321,292.784,481.463Z" transform="translate(-266.828 -451.77)"/><path class="h" d="M230.657,591.8h-6.03a3.313,3.313,0,0,1,.171-1.616c.3-.669.775-.973.661-1.782a2.172,2.172,0,0,0,1.879.719,6.615,6.615,0,0,0,1.046,1.356C228.778,590.757,230.535,590.656,230.657,591.8Z" transform="translate(-224.594 -524.03)"/><path class="h" d="M269.088,592.33h-6.03a2.508,2.508,0,0,1,.17-1.616,1.162,1.162,0,0,0-.043-1.388,2.341,2.341,0,0,0,1.015.191,2.123,2.123,0,0,0,.9-.315,21.609,21.609,0,0,0,1.718,1.8C267.209,591.29,268.966,591.189,269.088,592.33Z" transform="translate(-250.078 -524.563)"/><path class="m" d="M258.2,424.2s.054.32.841.321c0,0,.661,0,.662-.347A2.121,2.121,0,0,0,258.2,424.2Z" transform="translate(-246.895 -414.965)"/><path class="i" d="M277.481,480.294a2.4,2.4,0,0,0,.891-.219c.374-.2,1.6.121,1.478.284s-.8-.037-.867.055a1.1,1.1,0,0,1-.314.21Z" transform="translate(-259.693 -452.098)"/><g transform="translate(18.8 10.708)"><rect class="d" width="36.262" height="36.262" rx="18.131"/><path class="n" d="M321.242,446.316v17.707a4.6,4.6,0,0,1-4.6,4.6H298.933a4.6,4.6,0,0,1-4.6-4.6V446.316a4.6,4.6,0,0,1,4.6-4.6H316.64A4.6,4.6,0,0,1,321.242,446.316Z" transform="translate(-289.676 -437.39)"/><g transform="translate(4.927 7.276)"><path class="i" d="M321.042,475.151a23.809,23.809,0,0,1-.445,4.014l-2.808,1.959,10.57,1.581-2.521-3.483s-.761-3.717-.362-5.091S321.042,475.151,321.042,475.151Z" transform="translate(-310.17 -465.897)"/><path class="j" d="M327.414,479.142s.836,2.012,2.41,1.968,1.933-1.825,1.933-1.825Z" transform="translate(-316.557 -469.505)"/><path class="o" d="M322.537,458.5a25.274,25.274,0,0,0-.863-3.307c-.355-.769-.651-4.2,3.282-4.376a4.527,4.527,0,0,0,2.336-.325s0,.5-.207.68a2.614,2.614,0,0,1,2.424.857c1.065,1.183-.709,5.322-.621,6.3Z" transform="translate(-312.619 -450.489)"/><path class="i" d="M327.65,467.675a3.882,3.882,0,0,1-3.241-3.42V461.32a1.171,1.171,0,0,1,1.064-1.249h4.353a1.171,1.171,0,0,1,1.064,1.249v2.769A3.783,3.783,0,0,1,327.65,467.675Z" transform="translate(-314.563 -456.848)"/><path class="o" d="M324.123,461.575s.006-1.764,1.4-2.035,4.524.86,4.967-.426-6.043-1.264-6.37-.444A8.294,8.294,0,0,0,324.123,461.575Z" transform="translate(-314.276 -455.536)"/><path class="p" d="M314.852,490.776l0,0a1.906,1.906,0,0,0-.45-.122v.005a27.781,27.781,0,0,0-3.251-.62c-.115-.015-.229-.029-.342-.042a5.042,5.042,0,0,1-1.832,1.635c-.13.065-.26.123-.394.18q-.174.073-.357.145a2.172,2.172,0,0,1-.449-.113,2.658,2.658,0,0,1-.248-.1,5.486,5.486,0,0,1-1.962-1.8c-.156.016-.309.034-.455.052a15.4,15.4,0,0,0-2.606.531h0c-.082.01-2.96.407-7.364,7.062a4.6,4.6,0,0,0,4.331,3.045h17.707a4.6,4.6,0,0,0,4.351-3.1C318.187,492.466,315.8,491.127,314.852,490.776Z" transform="translate(-295.135 -476.669)"/><path class="e" d="M325.387,487.928a1.122,1.122,0,0,0-.6.728s1.883,1.937,3.115,1.966Z" transform="translate(-314.812 -475.336)"/><path class="e" d="M334.045,490.428l2.43-2.792a1.141,1.141,0,0,1,.494.874S335.09,490.5,334.045,490.428Z" transform="translate(-320.958 -475.142)"/><path class="e" d="M332.485,504.176h-2.428c.286-3.26.635-6.485.8-7.994.034-.306.061-.542.078-.693,0-.025.005-.048.008-.068s0-.022,0-.031c.007-.061.011-.093.011-.093l.243,0,.383-.007h0l.162,0s0,.025.006.074c0,.026.005.06.009.1s.005.067.008.107c.015.178.037.437.064.761C331.968,497.9,332.23,501.04,332.485,504.176Z" transform="translate(-318.311 -480.218)"/><path class="l" d="M331,492.863a11.675,11.675,0,0,1,1.8-.043.189.189,0,0,1,.145.281c-.191.344-.582.941-.99.941C331.386,494.041,330.493,492.9,331,492.863Z" transform="translate(-318.838 -478.567)"/></g></g><g transform="translate(2.857 12.949)"><path class="i" d="M279.133,481.787a1.806,1.806,0,0,1-2.245.587,17.268,17.268,0,0,0-2.008-.742c-.16-.04-.251-.069-.251-.069l.513-1.255a.225.225,0,0,0,.053.018,8.817,8.817,0,0,1,2.442.493C278.524,481.294,279.508,481.279,279.133,481.787Z" transform="translate(-260.657 -465.244)"/><path class="i" d="M248.091,454.363l-.215,1.182s-.4-.037-1.045-.1c-.193-.02-.3-.037-.3-.037-.514-.055-1.131-.138-1.8-.225h-.009c-1.152-.173-2.444-.388-3.54-.657a9.5,9.5,0,0,1-1.912-.661,1.087,1.087,0,0,1-.134-.079c-1.123-.675-2.573-2.823-3.758-5.158-.164-.322-.32-.645-.474-.959a24.754,24.754,0,0,1-1.327-3.341,9.741,9.741,0,0,1-.386-1.612,4.024,4.024,0,0,1-.048-.46c-.007-.083-.012-.165-.015-.244a4.174,4.174,0,0,1,2.928-1.062c.03.051.059.1.089.155.616,1.12,1.288,2.58,1.923,4.034.351.8.693,1.6,1.03,2.33.194.447.385.867.564,1.252a12.524,12.524,0,0,0,.911,1.694,4.393,4.393,0,0,0,1.2.906,40.623,40.623,0,0,0,3.767,1.91c.531.245,1.032.466,1.448.647C247.648,454.174,248.091,454.363,248.091,454.363Z" transform="translate(-233.11 -439.121)"/><path class="k" d="M236.114,437.51a3.407,3.407,0,0,0-3,1.145c-.205-2.615,1.065-3.086,1.065-3.086C234.681,435.307,235.366,436.16,236.114,437.51Z" transform="translate(-233.089 -435.522)"/></g></g><g transform="translate(203.307 86.237)"><path class="e" d="M2.655,0H25.883a2.655,2.655,0,0,1,2.655,2.655v0a2.655,2.655,0,0,1-2.655,2.655H2.654A2.654,2.654,0,0,1,0,2.655v0A2.655,2.655,0,0,1,2.655,0Z" transform="translate(0 0)"/><g transform="translate(0.989 5.309)"><path class="q" d="M756.415,556.945l-.339,3.107-4.908,44.974a.279.279,0,0,1-.256.276.481.481,0,0,1-.422-.561l3.892-46.055.147-1.74Z" transform="translate(-750.488 -556.945)"/><path class="r" d="M764.1,556.945l-.339,3.107c-.233-1.238-1.693-1.367-1.693-1.367l.147-1.74Z" transform="translate(-758.172 -556.945)"/><g transform="translate(20.633)"><path class="q" d="M817.337,605.3a.28.28,0,0,1-.257-.276l-4.908-44.974-.211-1.938-.128-1.169h1.885l.147,1.74.116,1.365,3.777,44.69A.481.481,0,0,1,817.337,605.3Z" transform="translate(-811.834 -556.945)"/><path class="r" d="M813.982,560.05a3.24,3.24,0,0,0-2.02-1.935h0l-.128-1.169h1.885l.147,1.74Z" transform="translate(-811.834 -556.945)"/></g></g></g><g transform="translate(20.251 105.524)"><path class="e" d="M1.7,0H26.838a1.7,1.7,0,0,1,1.7,1.7v0a1.7,1.7,0,0,1-1.7,1.7H1.7A1.7,1.7,0,0,1,0,1.7v0A1.7,1.7,0,0,1,1.7,0Z"/><g transform="translate(0.989 3.401)"><path class="q" d="M212.162,608.615l-.339,1.99-4.907,28.81a.243.243,0,0,1-.257.177c-.252,0-.448-.167-.421-.36l3.892-29.5.147-1.115Z" transform="translate(-206.235 -608.615)"/><path class="r" d="M219.846,608.615l-.339,1.99c-.233-.793-1.693-.876-1.693-.876l.147-1.115Z" transform="translate(-213.919 -608.615)"/><g transform="translate(20.633)"><path class="q" d="M273.084,639.592a.242.242,0,0,1-.257-.177l-4.908-28.81-.211-1.241-.127-.749h1.885l.147,1.115.115.875,3.777,28.629C273.532,639.425,273.336,639.592,273.084,639.592Z" transform="translate(-267.581 -608.615)"/><path class="r" d="M269.729,610.6c-.48-.948-2.019-1.24-2.019-1.24h0l-.127-.749h1.885l.147,1.115Z" transform="translate(-267.581 -608.615)"/></g></g></g><g transform="translate(59.183 4.164)"><path class="d" d="M18.322,0h0A18.321,18.321,0,0,1,36.643,18.321v0A18.322,18.322,0,0,1,18.321,36.643h0A18.321,18.321,0,0,1,0,18.322v0A18.322,18.322,0,0,1,18.322,0Z" transform="translate(0)"/><path class="n" d="M360.226,314.787v17.894a4.642,4.642,0,0,1-2.974,4.337c-.053.021-.106.04-.159.058a4.623,4.623,0,0,1-1.518.254H337.683a4.648,4.648,0,0,1-4.649-4.649V314.787a4.649,4.649,0,0,1,4.649-4.649h17.893A4.65,4.65,0,0,1,360.226,314.787Z" transform="translate(-328.329 -305.768)"/><g transform="translate(5.294 7.594)"><path class="i" d="M363.293,341.4a20.916,20.916,0,0,1-.39,3.527l-2.468,1.722,9.289,1.39-2.215-3.061s-.669-3.266-.318-4.474S363.293,341.4,363.293,341.4Z" transform="translate(-351.808 -333.264)"/><path class="j" d="M368.893,344.9s.734,1.768,2.118,1.729,1.7-1.6,1.7-1.6Z" transform="translate(-357.421 -336.434)"/><path class="f" d="M364.607,326.761a22.188,22.188,0,0,0-.758-2.906c-.312-.676-.571-3.69,2.884-3.845a3.981,3.981,0,0,0,2.052-.286s0,.442-.182.6a2.3,2.3,0,0,1,2.13.753c.935,1.039-.623,4.677-.546,5.534Z" transform="translate(-353.961 -319.724)"/><path class="i" d="M371.947,329.241v2.434a2.877,2.877,0,0,1-.251,1.157h0a3.694,3.694,0,0,1-1.246,1.5,2.4,2.4,0,0,1-1.349.491,2.611,2.611,0,0,1-1.282-.484,3.619,3.619,0,0,1-1.44-1.774l0-.011-.009-.031a2.337,2.337,0,0,1-.112-.706v-2.58a1.029,1.029,0,0,1,.935-1.1h3.824A1.029,1.029,0,0,1,371.947,329.241Z" transform="translate(-355.668 -325.312)"/><path class="s" d="M353.643,355.023s-2.181-.47-3.158-.584a4.523,4.523,0,0,1-2.269,1.765,4.179,4.179,0,0,1-2.337-1.816,13.087,13.087,0,0,0-2.691.555h0c-.088.011-3.466.481-8.4,9.412a4.649,4.649,0,0,0,3.366,2.332c.636-.55,2-1.736,3.074-2.666-.012.3-.014.572-.007.809.018.639.039,1.274.053,1.909h13.468c-.026-.322-.047-.634-.062-.931-.046-.925-.089-1.771-.129-2.542,0-.007,0-.013,0-.02v-.025l0,0,.681.591.154.133.136.119.191.166.35.3.162.141.086.075.1.086.074.064.172.15.141.122.117.1.415.361.16.138.162.141.111.1.049.042c.057.049.11.1.163.141l.158.138.062.054.065.056c.053-.017.106-.037.159-.058a4.658,4.658,0,0,0,2.825-3.165C356.616,355.262,353.643,355.023,353.643,355.023Z" transform="translate(-334.785 -342.73)"/><path class="f" d="M366,329.466s.005-1.55,1.233-1.788,3.976.756,4.365-.375-5.311-1.111-5.6-.39A7.283,7.283,0,0,0,366,329.466Z" transform="translate(-355.416 -324.159)"/><path class="l" d="M355.55,385.216h-1.6c-.014-.635-.035-1.27-.053-1.909-.007-.237,0-.509.007-.809,0-.067.005-.136.008-.206.015.025.043.068.08.129C354.236,382.81,354.887,383.894,355.55,385.216Z" transform="translate(-347.469 -361.248)"/><path class="f" d="M373.538,341.216v1.073a2.4,2.4,0,0,1-1.349.491,2.611,2.611,0,0,1-1.282-.484v-1.08A1.092,1.092,0,0,1,372,340.127h.453A1.092,1.092,0,0,1,373.538,341.216Z" transform="translate(-358.757 -333.265)"/><path class="l" d="M397.381,383.173c-.053.021-.106.04-.159.058l-.065-.055-.062-.054-.158-.138c-.053-.044-.107-.092-.163-.141l-.049-.042-.111-.1-.162-.141-.16-.138-.415-.361-.117-.1-.141-.122-.172-.15-.074-.064-.1-.086-.086-.075-.162-.141-.35-.3-.191-.166-.136-.119-.154-.134-.681-.591L393.5,380l.012-.008a1.32,1.32,0,0,1,2.028.441A30.676,30.676,0,0,0,397.381,383.173Z" transform="translate(-373.751 -359.517)"/><path class="f" d="M371.916,341.481a3.26,3.26,0,0,1-2.6,1.995,3.55,3.55,0,0,1-2.722-2.258l0-.011-.009-.031s.908.775,1.509.391h2.524A1.247,1.247,0,0,0,371.916,341.481Z" transform="translate(-355.89 -333.961)"/><path class="i" d="M373.993,342.08h-.544c-.125,0-.284-.2-.284-.329a.6.6,0,0,1,.284-.125h.544a.456.456,0,0,1,.337.178A.374.374,0,0,1,373.993,342.08Z" transform="translate(-360.256 -334.259)"/></g></g><g transform="translate(103.022 3.416)"><rect class="d" width="36.643" height="36.643" rx="18.322" transform="translate(0)"/><path class="n" d="M490.566,312.564v17.893a4.649,4.649,0,0,1-4.649,4.649H468.023a4.65,4.65,0,0,1-4.649-4.649V312.564a4.65,4.65,0,0,1,4.649-4.65h17.894A4.65,4.65,0,0,1,490.566,312.564Z" transform="translate(-458.669 -303.544)"/><g transform="translate(6.29 8.361)"><path class="f" d="M488.436,332.44s-2.919-.146-3-1.831-2.493-2.913-1.795-4.266c.856-1.659.075-3.253,1.156-4.368,1.191-1.229,2.7-.561,3.49-1.277a3.046,3.046,0,0,1,3.678-.491c1.431.885,2.525.408,3.466,1.26,1.04.941.645,2.126,1.5,2.769.786.59.466,2.2-.2,3.509-.477.944.623,1.828-1.266,2.912-.786.451-.616,1.587-3,1.783C491.4,332.528,489.063,332.024,488.436,332.44Z" transform="translate(-478.324 -319.782)"/><path class="t" d="M492.315,350.266a22.6,22.6,0,0,1-.422,3.811l-2.667,1.86,10.037,1.5-2.394-3.307s-.723-3.529-.343-4.835S492.315,350.266,492.315,350.266Z" transform="translate(-482.115 -339.101)"/><path class="u" d="M498.365,354.055s.794,1.911,2.289,1.869,1.835-1.733,1.835-1.733Z" transform="translate(-488.181 -342.527)"/><path class="t" d="M498.589,343.167a3.687,3.687,0,0,1-3.077-3.248v-2.787a1.112,1.112,0,0,1,1.011-1.186h4.133a1.112,1.112,0,0,1,1.011,1.186v2.63A3.593,3.593,0,0,1,498.589,343.167Z" transform="translate(-486.287 -330.509)"/><path class="o" d="M486.253,365.032h0a27.143,27.143,0,0,0-3.412-.671,4.875,4.875,0,0,1-2.452,1.9,4.521,4.521,0,0,1-2.525-1.958,14.144,14.144,0,0,0-2.908.6h0c-.12.015-2.788.429-6.865,6.517a4.627,4.627,0,0,0,3.065,1.153h16.008c0-.014,0-.028,0-.042h1.888a4.641,4.641,0,0,0,3.55-1.647C489.729,365.966,486.253,365.032,486.253,365.032Z" transform="translate(-468.085 -349.33)"/><path class="f" d="M495.5,335.852a2.922,2.922,0,0,1,3.215-1.937c2.464.358,2.677.884,2.939,1.495s.768-2.232.768-2.232l-2.906-.863s-3.516.4-3.769.99l-.253.59Z" transform="translate(-486.274 -328.099)"/><path class="f" d="M501.652,343.214a.791.791,0,0,0-.623-.264h-1.307a.577.577,0,0,0-.517.212.466.466,0,0,0-.073.216h0a1.218,1.218,0,0,0-.581.01h0a.48.48,0,0,0-.075-.226.575.575,0,0,0-.516-.212h-1.308a.789.789,0,0,0-.622.264.666.666,0,0,0-.122.575c.149.739,1,.834,1.425.834a2.357,2.357,0,0,0,.238-.011c.4,0,.678-.228.882-.714a1.274,1.274,0,0,0,.1-.4h0a1.126,1.126,0,0,1,.576-.012h0a1.261,1.261,0,0,0,.1.413c.2.486.484.714.882.714a2.379,2.379,0,0,0,.239.011c.425,0,1.276-.095,1.425-.833A.674.674,0,0,0,501.652,343.214Zm-3.188.309a1.284,1.284,0,0,1-.09.342c-.188.451-.444.661-.8.661h-.006a2.549,2.549,0,0,1-.725-.034.944.944,0,0,1-.846-.72.583.583,0,0,1,.1-.5.707.707,0,0,1,.555-.233h1.308a.5.5,0,0,1,.444.174.4.4,0,0,1,.061.2h0a1.084,1.084,0,0,0-.115.043.052.052,0,0,0,.022.1.055.055,0,0,0,.022,0s.027-.012.07-.027Zm3.226.249a.946.946,0,0,1-.847.72,2.549,2.549,0,0,1-.725.034h0c-.36,0-.616-.21-.8-.661a1.216,1.216,0,0,1-.091-.35h0a.775.775,0,0,1,.074.034.051.051,0,1,0,.048-.091.9.9,0,0,0-.123-.053h0a.391.391,0,0,1,.061-.193.5.5,0,0,1,.444-.174h1.307a.708.708,0,0,1,.556.233A.587.587,0,0,1,501.69,343.772Z" transform="translate(-486.538 -335.157)"/></g></g><g transform="translate(153.51 0)"><path class="d" d="M628.993,323.972,605.04,321.21a6.266,6.266,0,0,1-5.507-6.942l2.762-23.953a6.266,6.266,0,0,1,6.942-5.507l23.953,2.762a6.266,6.266,0,0,1,5.507,6.942l-2.762,23.953A6.265,6.265,0,0,1,628.993,323.972Z" transform="translate(-599.492 -284.766)"/><path class="n" d="M643.7,305.99l-2.05,17.775a4.617,4.617,0,0,1-.653,1.895h0a4.66,4.66,0,0,1-2.272,1.9,4.611,4.611,0,0,1-1.726.319h0a4.489,4.489,0,0,1-.5-.03l-7.536-.869-1.49-.172-4.87-.562-.625-.072-3.254-.375a4.647,4.647,0,0,1-3.779-2.878c-.04-.1-.078-.2-.11-.3a4.563,4.563,0,0,1-.225-1.274,4.655,4.655,0,0,1,.028-.7l2.05-17.775a4.649,4.649,0,0,1,5.151-4.087l17.775,2.05A4.65,4.65,0,0,1,643.7,305.99Z" transform="translate(-609.52 -294.051)"/><g transform="translate(5.085 8.586)"><path class="v" d="M636.174,317.748a.316.316,0,0,0-.007-.042c-.057-.325-.122-.647-.193-.964h0c.4-2.541-.58-3.628-1.424-4.179h0a3.788,3.788,0,0,0-1.4-1.722,4.508,4.508,0,0,0-2.467-.26,1.137,1.137,0,0,1,.491-.286,3.77,3.77,0,0,0-1.313.463c-5.97-1.741-6.161,6.849-5.874,8.817s-1.721,2.788-4.6,4.6A13.229,13.229,0,0,0,614.611,329a4.564,4.564,0,0,0,.225,1.274.892.892,0,0,1,.283-.183c-.006.017-.077.211-.172.485a4.647,4.647,0,0,0,3.779,2.878l3.254.375.625.072,4.87.562c.512-.725,1.068-1.476,1.647-2.221a48.493,48.493,0,0,1,4.288-4.894c.442-.428.862-.8,1.248-1.109l.043-.034a5.637,5.637,0,0,0,.46-1.119,13.681,13.681,0,0,0,.5-3,13.249,13.249,0,0,1-.281,3.025,5.27,5.27,0,0,1-.2.666,3.634,3.634,0,0,0,.457-.626C636.647,323.42,636.659,320.5,636.174,317.748Z" transform="translate(-614.611 -310.293)"/><path class="i" d="M661.16,346.954a5.351,5.351,0,0,1-3.328.219,4.259,4.259,0,0,1-1.931-2.332c.573-.047.824-.8,1.194-4.111l.248.079,4.165,1.335s-.252,1.33-.4,2.593C660.982,345.8,660.931,346.812,661.16,346.954Z" transform="translate(-642.013 -330.493)"/><path class="w" d="M655.781,314.807a3.429,3.429,0,0,1,4.747-.516A18.6,18.6,0,0,0,655.781,314.807Z" transform="translate(-641.934 -312.461)"/><path class="x" d="M664.353,342.3s-.252,1.33-.4,2.593c-2.377-.342-3.387-2.663-3.764-3.928Z" transform="translate(-644.858 -330.649)"/><path class="i" d="M662.151,328.628s-5.652.57-5.953-2.955-1.233-5.826,2.363-6.339,4.413.772,4.8,1.924S663.614,328.389,662.151,328.628Z" transform="translate(-641.988 -316.216)"/><path class="v" d="M657.831,317.462s-1.2,4.267-3.528,5.079-3.412.262-3.412.262a6.758,6.758,0,0,0,1.867-4.165S656.5,315.592,657.831,317.462Z" transform="translate(-638.688 -314.648)"/><path class="v" d="M670.467,318.251a5.015,5.015,0,0,1,1.593,1.7c.358.874.64,2.712,1.174,2.6,0,0,.931-2.91-.515-4.39C671.185,316.6,670.467,318.251,670.467,318.251Z" transform="translate(-651.68 -315.069)"/><path class="w" d="M653.135,354.172a4.907,4.907,0,0,0-2.964-1.316l-.256-.04-.215-.029c-.5-.065-.972-.1-1.378-.116l-.108-.155,0-.005-4.779-.387-.05,0h-.021c-.36-.039-5.312-.53-6.269,1.217-.626,1.142-.638,3.326-.342,5.75-.089.822-.163,1.658-.229,2.444l.625.072,4.87.562,1.49.172,7.536.869a4.473,4.473,0,0,0,.5.03h0a4.61,4.61,0,0,0,1.726-.319,4.66,4.66,0,0,0,2.272-1.9h0C654.814,358.045,653.907,355.14,653.135,354.172Z" transform="translate(-629.15 -337.988)"/></g></g><g transform="translate(155.975 48.226)"><path class="d" d="M18.311,0h0A18.311,18.311,0,0,1,36.623,18.311v0A18.311,18.311,0,0,1,18.311,36.623h0A18.311,18.311,0,0,1,0,18.312v0A18.311,18.311,0,0,1,18.311,0Z"/><path class="n" d="M647.982,445.782v17.883a4.641,4.641,0,0,1-4.42,4.641c-.076,0-.151.006-.228.006H625.356l-.092,0a4.641,4.641,0,0,1-4.459-4.643V445.782a4.647,4.647,0,0,1,4.647-4.648h17.883A4.647,4.647,0,0,1,647.982,445.782Z" transform="translate(-616.102 -436.767)"/><g transform="translate(4.892 6.682)"><path class="i" d="M645.885,476.312a27.351,27.351,0,0,1-.51,4.605l-3.222,2.247,12.128,1.815-2.892-4s-.873-4.264-.415-5.841S645.885,476.312,645.885,476.312Z" transform="translate(-635.162 -465.695)"/><path class="j" d="M653.2,480.891s.959,2.309,2.765,2.258,2.218-2.094,2.218-2.094Z" transform="translate(-642.49 -469.834)"/><path class="f" d="M647.6,457.2a28.952,28.952,0,0,0-.991-3.794c-.407-.882-.746-4.817,3.766-5.021a5.2,5.2,0,0,0,2.68-.373s0,.577-.237.78a3,3,0,0,1,2.782.984c1.221,1.357-.814,6.106-.712,7.226Z" transform="translate(-637.973 -448.017)"/><path class="i" d="M653.466,467.735c-1.309-.023-3.718-1.766-3.718-3.924v-3.368a1.344,1.344,0,0,1,1.221-1.433h4.994a1.344,1.344,0,0,1,1.221,1.433v3.177C657.184,465.884,654.967,467.762,653.466,467.735Z" transform="translate(-640.202 -455.313)"/><path class="f" d="M649.419,460.736s.007-2.023,1.61-2.335,5.19.986,5.7-.489-6.934-1.45-7.309-.509A9.515,9.515,0,0,0,649.419,460.736Z" transform="translate(-639.874 -453.808)"/><path class="l" d="M651.4,502.915H634.335c.429-3.888,1.35-8.577,2.087-8.886,0,0,.084-.031.247-.082h0a16.652,16.652,0,0,1,2.388-.527h.008q.514-.079,1.118-.142c0,.047,1.395,2.087,3.051,2.315a5.74,5.74,0,0,0,2.963-2.249c.371.044.751.094,1.14.155.946.146,1.942.343,2.982.606.123.03.248.063.372.1h0c.049.012.1.025.148.039,0,0,.012.051.041.356h0C650.949,495.285,651.1,497.276,651.4,502.915Z" transform="translate(-629.973 -478.053)"/><g transform="translate(0 15.365)"><path class="g" d="M627.951,494.248l-.013,0a2.52,2.52,0,0,0-.259.075l-.018.006-.015.005-.01,0c-.9.31-3.137,1.448-6.268,5.524a4.648,4.648,0,0,0,4.27,3.327l.092,0h4.6c.049-2.871.083-5.369.105-7.082.009-.756.016-1.359.021-1.773s.006-.642.006-.642h-.008A17.9,17.9,0,0,0,627.951,494.248Z" transform="translate(-621.367 -493.699)"/><path class="g" d="M676.505,494.673a2.647,2.647,0,0,0-.462-.133h0a27.138,27.138,0,0,0-3.038-.607h0c0,.025,0,.542.01,1.435h0c.005.572.012,1.3.02,2.149.015,1.582.037,3.593.066,5.834h4.877c.077,0,.152,0,.228-.006a4.65,4.65,0,0,0,4.239-3.353C679.514,496.158,677.423,495.012,676.505,494.673Z" transform="translate(-655.635 -493.854)"/></g><path class="o" d="M657.417,467.539a.89.89,0,0,0-.7-.3h-1.471a.651.651,0,0,0-.581.239.543.543,0,0,0-.083.243h0a1.371,1.371,0,0,0-.653.012h0a.543.543,0,0,0-.084-.255.649.649,0,0,0-.581-.239H651.8a.891.891,0,0,0-.7.3.754.754,0,0,0-.137.647c.168.831,1.125.937,1.6.937.147,0,.249-.01.268-.012.448,0,.762-.256.991-.8a1.4,1.4,0,0,0,.111-.451h0a1.269,1.269,0,0,1,.648-.013h0a1.409,1.409,0,0,0,.113.464c.229.547.544.8.991.8.02,0,.121.012.268.012.478,0,1.436-.106,1.6-.937A.753.753,0,0,0,657.417,467.539Zm-3.585.347a1.426,1.426,0,0,1-.1.383c-.212.508-.5.744-.9.744h-.006a2.874,2.874,0,0,1-.816-.038,1.062,1.062,0,0,1-.951-.809.66.66,0,0,1,.117-.566.8.8,0,0,1,.625-.262h1.47a.563.563,0,0,1,.5.2.444.444,0,0,1,.069.228h0a1.253,1.253,0,0,0-.129.048.058.058,0,0,0,.024.11.06.06,0,0,0,.024-.005s.031-.013.079-.03Zm3.627.28a1.063,1.063,0,0,1-.952.809,2.869,2.869,0,0,1-.815.038h-.006c-.4,0-.692-.236-.9-.744a1.394,1.394,0,0,1-.1-.394h0a.877.877,0,0,1,.083.038.058.058,0,0,0,.055-.1,1.02,1.02,0,0,0-.14-.06h0a.467.467,0,0,1,.069-.218.562.562,0,0,1,.5-.2h1.471a.8.8,0,0,1,.625.262A.661.661,0,0,1,657.459,468.167Z" transform="translate(-640.992 -460.775)"/></g></g><g transform="translate(92.467 46.781)"><rect class="d" width="42.473" height="42.473" rx="21.236" transform="translate(0)"/><path class="n" d="M465.735,444.3v20.739a5.391,5.391,0,0,1-3.365,5c-.116.047-.234.09-.354.129a5.373,5.373,0,0,1-1.67.264H439.607a5.389,5.389,0,0,1-5.39-5.39V444.3a5.389,5.389,0,0,1,5.39-5.39h20.739A5.389,5.389,0,0,1,465.735,444.3Z" transform="translate(-428.763 -433.845)"/><g transform="translate(12.388 10.435)"><path class="y" d="M468.974,455h0a5.4,5.4,0,0,0-2.04-.06,6.576,6.576,0,0,0-2.727,1.031c-1.051.71-2.568,2.242-.872,6.445l.8,1.446c-.268,3.149-1.556,3.149-1.556,3.149a2.883,2.883,0,0,0,.835.278s.4-.152.476-.371a1.416,1.416,0,0,1-.18.455,5.762,5.762,0,0,0,3.278-.619,6.471,6.471,0,0,0,1.663-2.575l1.654.116a3.314,3.314,0,0,1-1.032,2.375s2.04.2,2.73-.365a1.893,1.893,0,0,1-.262.4s2.281.082,3.222-.629S475.3,453.7,468.974,455Z" transform="translate(-459.971 -454.876)"/><path class="i" d="M472.718,500.529H456.57a16.083,16.083,0,0,1-.24-3.543,7.34,7.34,0,0,1,1.45-3.706,12.655,12.655,0,0,1,2.688-2.727l.1-.019c.115-.02.315-.052.527-.072h0c.2-.106.283-.837.307-1.694.007-.238.009-.486.008-.732,0-.213,0-.427-.008-.639q0-.148-.008-.293c0-.028,0-.055,0-.082s0-.082,0-.122,0-.062,0-.093c0-.049,0-.1-.005-.143,0-.064,0-.126-.007-.187,0-.014,0-.026,0-.04,0-.058-.005-.115-.007-.17s-.007-.133-.01-.2l0-.048c-.005-.1-.01-.194-.015-.278,0-.023,0-.045,0-.067s0-.05,0-.074,0-.046,0-.067c0-.071-.008-.131-.012-.179,0-.011,0-.021,0-.031s0-.023,0-.032c0-.044,0-.068,0-.068l2.725-.539h0l1.868-.37.219-.043.055-.011v0a16.3,16.3,0,0,0,.1,1.937,13.024,13.024,0,0,0,.229,1.369h0c.34,1.506.869,2.413,1.251,2.563h0a.26.26,0,0,0,.038.013C469.658,490.533,472.482,495.355,472.718,500.529Z" transform="translate(-455.812 -474.381)"/><path class="z" d="M471.176,485.336s.1,1.446.108,2.807c2.571-.072,3.93-2.417,4.486-3.717Z" transform="translate(-465.68 -474.487)"/><path class="i" d="M464.626,470.714s6.082.1,6.086-3.688.792-6.327-3.091-6.552-4.64,1.221-4.948,2.485S463.044,470.591,464.626,470.714Z" transform="translate(-459.988 -458.576)"/><path class="y" d="M469.292,458.725s1.666,4.445,4.221,5.1,3.664-.027,3.664-.027a7.238,7.238,0,0,1-2.367-4.276S470.548,456.61,469.292,458.725Z" transform="translate(-464.429 -456.919)"/><path class="y" d="M464.443,459.887a5.371,5.371,0,0,0-1.547,1.957c-.3.965-.439,2.951-1.018,2.883,0,0-1.255-3.021.155-4.73C463.528,458.185,464.443,459.887,464.443,459.887Z" transform="translate(-459.167 -457.72)"/><path class="y" d="M469.832,459.375s1.187,4.655,4.411,6.145c0,0-3.225-2.86-3.5-5.932S469.832,459.375,469.832,459.375Z" transform="translate(-464.788 -457.059)"/><path class="s" d="M475.262,504.477q-.155-.371-.306-.731l-.151-.357a.026.026,0,0,0,0-.009c-1.406-3.338-2.519-5.857-2.628-6.042-.314-.53-4.6-1.056-5.225-1.052-.456,0-.706-1.508-.807-2.335a.307.307,0,0,0-.476-.217c-.045.03-.09.061-.136.089l-.168.107c-.057.035-.113.068-.169.1l-.114.065c-.043.024-.086.047-.128.07l-.117.062-.118.059-.117.057-.092.043c-.057.026-.114.051-.171.075l-.122.051-.086.035c-.157.062-.313.118-.468.168a6.494,6.494,0,0,1-3.231.3l-.051-.013a.5.5,0,0,0-.607.589,1.279,1.279,0,0,1-.123,1.135c-1.088.243-3.736.918-4.232,1.86-.356.676-.389,4.653-.582,8.188h19.194a5.373,5.373,0,0,0,1.67-.264c.12-.039.238-.082.354-.129C475.785,505.733,475.52,505.094,475.262,504.477Z" transform="translate(-454.834 -480.629)"/><path class="l" d="M493.182,528.858h-2.575c.651-1.078,1.272-1.861,1.631-1.9C492.546,526.917,492.874,527.726,493.182,528.858Z" transform="translate(-478.575 -502.71)"/><path class="l" d="M479.336,496.286s-3.207,2.031-5.634,1.551c0,0-.583-.368.221-.738.754-.346,2.509-1.372,2.124-2.384a7.924,7.924,0,0,0,2.006-.98.307.307,0,0,1,.476.217C478.63,494.777,478.88,496.286,479.336,496.286Z" transform="translate(-467.22 -480.629)"/></g></g><g transform="translate(138.874 73.68)"><path class="l" d="M589.8,534.658s4.884,5,5.121,6.922-2.354,4.94-2.354,4.94Z" transform="translate(-578.426 -524.288)"/><path class="v" d="M570.155,690.357s-.168,2.716-.694,2.755c-.07.005-2.665.005-2.665.005l-3.313-.019a1.075,1.075,0,0,1,.99-.967A4.491,4.491,0,0,0,567.65,690C568.266,688.656,570.155,690.357,570.155,690.357Z" transform="translate(-560.959 -627.039)"/><path class="v" d="M592.093,690.357s-.169,2.716-.694,2.755c-.07.005-2.665.005-2.665.005l-3.313-.019a1.075,1.075,0,0,1,.99-.967A4.492,4.492,0,0,0,589.587,690C590.2,688.656,592.093,690.357,592.093,690.357Z" transform="translate(-575.518 -627.039)"/><path class="v" d="M572.411,597.107a109.35,109.35,0,0,0,4.1,15.378c3.232,9.837,3.672,14.1,3.672,14.1l3.468-.1s.029-10.75-1.46-15.7-.321-17.833-.321-17.833Z" transform="translate(-566.884 -562.977)"/><path class="y" d="M567.389,593.857a134.541,134.541,0,0,0,1.322,18.6c1.445,10.253.955,14.605.955,14.605l3.46.115s2.068-10.257,1.475-15.389,2.832-17.609,2.832-17.609Z" transform="translate(-563.549 -563.576)"/><path class="i" d="M578.415,527.612l-1.844,1.209-2.664-.5c.037-.215.213-1.107.373-1.914.01-.048.019-.1.028-.142.137-.687.256-1.277.256-1.277l2.489-1.1.928-.409c0,.014-.072.763-.081.871A6.345,6.345,0,0,0,578.415,527.612Z" transform="translate(-567.877 -516.873)"/><path class="l" d="M573.833,532.268a22.329,22.329,0,0,1,3.552-.84c.343.113.546.777.546.777l-5.164,1.167A2.565,2.565,0,0,1,573.833,532.268Z" transform="translate(-567.12 -522.139)"/><path class="k" d="M577.595,554.948c-.535,2.441-9.441,2.731-11.737.515-.261-.252-.274-1.428-.175-3.012.192-3.1.811-7.752.835-10.131a18.845,18.845,0,0,1,.38-3.391,27.549,27.549,0,0,1,1.129-4.059s4.35-1.406,5.164-1.167C577.113,534.855,578.13,552.507,577.595,554.948Z" transform="translate(-562.381 -523.636)"/><path class="l" d="M565.795,561.9c.192-3.1.811-7.752.835-10.131a18.846,18.846,0,0,1,.38-3.391l2.616-.462S572.185,558.37,565.795,561.9Z" transform="translate(-562.493 -533.091)"/><path class="i" d="M568.537,575.866a.616.616,0,0,1-.2.713,1.194,1.194,0,0,0-.532,1.089c.086.339.907.892,1.192.8s.865-.536.8-.714.39-1.569-.3-2.1A.56.56,0,0,0,568.537,575.866Z" transform="translate(-563.818 -551.366)"/><path class="k" d="M563.623,535.364a7.928,7.928,0,0,0-4.585,3.474c-2.033,3-3.371,5.224-3,6.3s3.789,4.826,4.378,4.826a1.578,1.578,0,0,0,1.592-1.391s-2.4-3.6-1.93-4.142c.2-.23,3.121-2.6,3.538-1.529C564.307,544.676,563.623,535.364,563.623,535.364Z" transform="translate(-555.978 -524.757)"/><path class="aa" d="M578.448,525.2c-.547.926-2.583,1.726-3.432,2.021.01-.048.02-.1.028-.142.137-.687.256-1.277.256-1.277l2.489-1.1C578.339,524.693,578.674,524.816,578.448,525.2Z" transform="translate(-568.613 -517.68)"/><path class="i" d="M572.083,514.5s4.009,1.251,4.749-1.258,1.756-4.036-.772-4.941-3.31-.095-3.761.682S571.06,514.107,572.083,514.5Z" transform="translate(-566.334 -506.53)"/><path class="y" d="M573.439,506.037s.256,2.919.859,2.792,1.151-.221,1.063.659-.5,2.278,1.362,2.433,4.108-5.024,3.6-5.932C578.845,503.369,571.308,502.84,573.439,506.037Z" transform="translate(-567.316 -503.828)"/></g><g transform="translate(188.461 18.207)"><path class="i" d="M773.149,363.98s-1.83,2.171-4.16,1.263a7.063,7.063,0,0,1-.508-2.106c0-.11,0-.217,0-.318-.012-1.006-.046-1.571-.046-1.571h0c.106-.044,3.562-1.463,3.559-1.345A6.129,6.129,0,0,0,773.149,363.98Z" transform="translate(-746.56 -352.833)"/><path class="ab" d="M771.645,361.8a5.4,5.4,0,0,1-3.168,2.268c-.012-1.006-.046-1.571-.046-1.571h0A22.167,22.167,0,0,1,771.645,361.8Z" transform="translate(-746.56 -354.077)"/><path class="i" d="M765.085,350.967s3.887.914,4.419-1.515,1.391-3.947-1.068-4.633-3.146.135-3.521.9S764.088,350.667,765.085,350.967Z" transform="translate(-743.939 -342.656)"/><path class="ac" d="M766.8,346.355c.053.034.889.291,2.473-2.864a2.748,2.748,0,0,0-.161-2.513c-.579-.946-2.635-1.691-4.342-2.015s-2.118.637-2.52,1.6a5.207,5.207,0,0,1-1.641,1.848c1.472.822,3.246-.354,3.86-.16s.831,1.162.877,1.472.117.568.889.291.349,1.095.226,1.357C766.466,345.373,766.361,346.072,766.8,346.355Z" transform="translate(-741.373 -338.898)"/><g transform="translate(19.061 29.84)"><path class="f" d="M808.64,529.706h2.353c.493,0,1.042-.494,1.179-1.4s1.151-1.4,1.371-2.138-.9-1.783-.9-1.783l-.188-.242-.2-.252-1.864.439s-.046.444-.075,1.009a12.86,12.86,0,0,0-.008,1.294c.055.987-.276,2.05-1.153,2.242S808.64,529.706,808.64,529.706Z" transform="translate(-792.257 -491.511)"/><path class="f" d="M760.077,534.474h6.238a.572.572,0,0,0,.133-.038c.416-.208.286-1.8.236-2.3-.01-.091-.017-.145-.017-.145s-2.193-1.754-2.5-.411c-.009.042-.021.083-.032.124h0c-.381,1.257-2.083,1.828-3.066,1.987A1.071,1.071,0,0,0,760.077,534.474Z" transform="translate(-760.077 -496.279)"/><path class="g" d="M763.815,433.083s.333,4.157.725,9.153c.532,6.787,1.172,15.124,1.235,16.7.109,2.742.549,7.129.549,7.129a3.448,3.448,0,0,0,3.126.6,71.782,71.782,0,0,0,2.388-12.888c.008-.108.016-.218.025-.327.494-6.745,1.261-20.948,1.261-20.948Z" transform="translate(-762.558 -430.862)"/><path class="h" d="M763.815,433.083s.333,4.157.725,9.153l7.3,11.547c.008-.108.016-.218.025-.327.494-6.745,1.261-20.948,1.261-20.948Z" transform="translate(-762.558 -430.862)"/><path class="g" d="M768.338,430.331s6,15.053,9.953,22.127,5.182,9.048,5.182,9.048,2.262-.9,2.467-1.522c0,0-1.51-13.657-4.154-16.986-1.494-1.881-3.249-7.526-3.331-9.5s-.534-5.882-.534-5.882Z" transform="translate(-765.56 -427.616)"/></g><g transform="translate(25.03 11.388)"><path class="i" d="M808.959,426.856l.063.968a2.086,2.086,0,0,0,1.151,2.6s.766.309.8-.287-.067-.372,0-1.212a1.933,1.933,0,0,0-.823-1.9l-.456-.526Z" transform="translate(-798.456 -408.425)"/><path class="ad" d="M789.026,391.892c-.665.213-.771.165-.771.165s-3.235-5.89-3.563-6.429-6.869-6.6-6.869-6.6l1.681-6.268s7.439,9.634,8.243,11.016c1.328,2.284,2.105,7.589,2.105,7.589A1.944,1.944,0,0,1,789.026,391.892Z" transform="translate(-777.824 -372.756)"/></g><path class="ae" d="M760.031,378.719c.023,1.287.1,2.734.2,4.2l.019.261c.065.91.135,1.823.215,2.713q.048.536.1,1.056l.005.047c0,.129.019.27.033.4.328,3.333.672,5.966.736,6.007a.373.373,0,0,0,.256.065,38.11,38.11,0,0,0,5.617-.376,16.185,16.185,0,0,0,5-2.072c.218-.129.716-.471.675-.726-.04-.28-.113-.686-.207-1.2a64.695,64.695,0,0,1-1.074-8.392c-.037-.665-.091-1.322-.161-1.967a29.872,29.872,0,0,0-.871-4.7c-.732-2.636-1.808-4.655-3.158-5.444-.177-.1-1.125.5-2,1.064a3.849,3.849,0,0,1-2.477.587l-.725.8a8.1,8.1,0,0,0-2.069,4.312q-.029.214-.049.456A28.246,28.246,0,0,0,760.031,378.719Z" transform="translate(-740.981 -358.603)"/><path class="ad" d="M760.031,390.068c.023,1.287.1,2.734.2,4.2l.019.261a13.446,13.446,0,0,0,5.762-8.844,13.656,13.656,0,0,0-5.912,1.48A28.246,28.246,0,0,0,760.031,390.068Z" transform="translate(-740.981 -369.951)"/><g transform="translate(0 12.463)"><path class="ab" d="M707.7,378.1l-.909-.466a2.488,2.488,0,0,0-2.778-1.657s-.892.18-.519.737.31.3.819,1.09a2.327,2.327,0,0,0,2.013,1.221l.761.2Z" transform="translate(-703.407 -375.951)"/><path class="ae" d="M713.264,378.769c.257-.7.658-.651.658-.651s7.424,1.85,8.09,1.929,7.994-2.861,7.994-2.861,2.884-1.295,4.236-.112a3.229,3.229,0,0,1,.953,3.421,3.267,3.267,0,0,1-2.761,2.433c-2.989.381-8.954,1.1-10.2.924-2.783-.387-9.087-4.027-9.087-4.027A2.339,2.339,0,0,1,713.264,378.769Z" transform="translate(-709.857 -376.366)"/></g></g><path class="f" d="M385.941,543.461a2.116,2.116,0,0,0-2.36-2.3,3.02,3.02,0,0,1,1.182.634,3.04,3.04,0,0,0-3.424.517c-1.784,1.479-.676,5.188-1.218,5.893s-2.655.845-2.4,3.122,6.706,5.13,6.292,7.014c0,0,2.527-3.714.72-5.409a3.347,3.347,0,0,1,.97,1.816s.239-1.925-.986-2.541a4.522,4.522,0,0,1-1.878-2.894C382.936,548.954,385.941,543.461,385.941,543.461Z" transform="translate(-298.79 -454.923)"/><path class="j" d="M386.45,576.563a2.283,2.283,0,0,0-4.043-.942,2.066,2.066,0,0,0-.407,1c-.267,2.167,3.2,10.992,3.693,11.791.9,1.455,6.222,6.442,6.222,6.442l.98-.594s-3.772-6.386-4.357-6.984C387.863,586.588,387.2,580.187,386.45,576.563Z" transform="translate(-301.633 -477.202)"/><path class="af" d="M387.81,576.661a5.711,5.711,0,0,1,1.1,1.723s-1.2,3.454-4.013,3.886C384.895,582.271,387.119,576.66,387.81,576.661Z" transform="translate(-303.564 -478.484)"/><path class="f" d="M391.831,546.964a21.319,21.319,0,0,0-3.2,1.566c-1.445,1.6-1.033,3.693-.206,3.714.53.013.427.894.427.894l5.906-2.5S394.046,546.493,391.831,546.964Z" transform="translate(-305.407 -458.75)"/><path class="g" d="M352.007,632.267l-1.278-.188a15.109,15.109,0,0,1-4.937-9.787,11.382,11.382,0,0,1-.031-1.97.344.344,0,0,0-.044-.217l0,0c-.138-.211-.48-.739-.943-1.491s-1.239-2.139-2.1-3.709c-1.55-2.828-3.353-6.209-3.972-7.286-1.972-3.433-1.021-5.741-1.021-5.741s5.5-.544,7.008-1.862l.543.837s1.192,5.276,1.135,5.3l.179.548a91.705,91.705,0,0,1,2.612,9.486,15.672,15.672,0,0,1,.413,4.1,7.2,7.2,0,0,0,.1,1.5C350.2,625.569,352.007,632.267,352.007,632.267Z" transform="translate(-272.077 -493.981)"/><path class="h" d="M378.121,694.862h-5.332a2.929,2.929,0,0,1,.151-1.429c.267-.591.647-.61.049-1.537a3.25,3.25,0,0,0,2.2.39,6.537,6.537,0,0,0,.925,1.407C376.46,693.942,378.014,693.853,378.121,694.862Z" transform="translate(-295.51 -554.959)"/><path class="h" d="M346.544,606.7c-.466,2.569-1.566,6.844-3.871,8.2-1.55-2.828-3.353-6.209-3.972-7.286-1.972-3.433-1.021-5.741-1.021-5.741s5.5-.544,7.008-1.862l.543.837s1.192,5.276,1.135,5.3Z" transform="translate(-272.077 -493.981)"/><path class="g" d="M326.96,600.077l.018-1c-1.987.25-6.851-2.374-6.851-2.374s-2.079,1.382-2.363,5.331c-.139,1.927-1.017,10.078-1.115,12.511-.036.882-.047,1.512-.051,1.763v0a.346.346,0,0,1-.084.205,11.4,11.4,0,0,0-1.077,1.65c-3.032,5.641-1.446,13.306-1.446,13.306l.7-.179s2.564-7.946,4.239-11.383a7.211,7.211,0,0,1,.759-1.3,15.663,15.663,0,0,0,1.949-3.628,94.938,94.938,0,0,0,3.3-9.879C325,605.117,326.96,600.077,326.96,600.077Z" transform="translate(-256.233 -491.786)"/><path class="i" d="M384.366,571.836c-3.248-.745-1.173-5.31-.985-5.229a5.107,5.107,0,0,0,2.323-2.425l.119.1,2,1.749s-.461.68-.849,1.346a3.044,3.044,0,0,0-.52,1.212C386.611,568.719,385.233,572.035,384.366,571.836Z" transform="translate(-302.011 -470.201)"/><path class="j" d="M394.194,566.24s-.461.679-.849,1.346a3.088,3.088,0,0,1-1.146-3.1Z" transform="translate(-308.386 -470.407)"/><path class="i" d="M394.086,560.08s-3.012-1.676-1.939-3.536,1.406-3.328,3.374-2.337,1.93,1.914,1.722,2.622S394.9,560.467,394.086,560.08Z" transform="translate(-308.223 -463.37)"/><path class="f" d="M397.127,555.248c-.138-.826-.557-.9-.85-.849a2.408,2.408,0,0,0-2.929-1.121,4.1,4.1,0,0,1-2.374,1.426,2.853,2.853,0,0,0,1.79,1.053,2.461,2.461,0,0,0,1.42-.114,8.044,8.044,0,0,1-2.044.771c1.9.174,3.7-1.561,3.89-1.747a2.7,2.7,0,0,1,.149,1.243c-.125.559-.622,1.572-.319,1.7C395.861,557.612,397.334,556.486,397.127,555.248Z" transform="translate(-307.598 -462.874)"/><path class="h" d="M316.836,694.786H311.5a2.929,2.929,0,0,1,.151-1.429c.267-.591.685-.86.585-1.576a1.92,1.92,0,0,0,1.662.636,5.857,5.857,0,0,0,.925,1.2C315.175,693.865,316.729,693.776,316.836,694.786Z" transform="translate(-254.838 -554.883)"/><path class="ag" d="M351.9,578.5a12.96,12.96,0,0,1-2.634.478,17.806,17.806,0,0,0-3.608.56.814.814,0,0,0-.519.421,9.9,9.9,0,0,1-1.777,2.513c-9.285-.422-10.3-4.306-10.3-4.306,6.247-7.264,16.824-9.367,16.824-9.367s.755-.32,2.658,1.192c1.27,1.009,1.1,1.4,1.1,1.4S353.915,577.8,351.9,578.5Z" transform="translate(-269.158 -473.248)"/><path class="af" d="M374.065,584.214a17.8,17.8,0,0,0-3.608.56,14.787,14.787,0,0,1,1.875-8.114S373.758,582.461,374.065,584.214Z" transform="translate(-293.962 -478.483)"/><rect class="d" width="39.057" height="39.057" rx="19.529" transform="translate(89.232 100.701)"/><path class="n" d="M452.279,602.969v19.072A4.959,4.959,0,0,1,447.323,627H428.251a4.957,4.957,0,0,1-4.955-4.956V602.969a4.955,4.955,0,0,1,4.955-4.955h19.072A4.956,4.956,0,0,1,452.279,602.969Z" transform="translate(-329.049 -492.655)"/><g transform="translate(95.504 108.925)"><path class="f" d="M452.711,624.017s-2.768-5.021-.229-7.237,7.008-.894,7.831,0,1.918,3.436-.353,7.052Z" transform="translate(-443.21 -613.227)"/><path class="t" d="M451.513,643.649a26.581,26.581,0,0,1-.5,4.489l-3.14,2.191L459.7,652.1l-2.819-3.9s-.851-4.156-.4-5.694S451.513,643.649,451.513,643.649Z" transform="translate(-440.865 -630.792)"/><path class="u" d="M458.639,648.112s.935,2.25,2.7,2.2,2.161-2.041,2.161-2.041Z" transform="translate(-448.008 -634.827)"/><path class="t" d="M458.9,635.288a4.342,4.342,0,0,1-3.624-3.825V628.18a1.31,1.31,0,0,1,1.191-1.4h4.868a1.31,1.31,0,0,1,1.19,1.4v3.1A4.231,4.231,0,0,1,458.9,635.288Z" transform="translate(-445.777 -620.672)"/><path class="ah" d="M453.427,666.6a4.94,4.94,0,0,1-3.625,1.578H430.73a4.942,4.942,0,0,1-3.7-1.659c4.087-5.432,6.678-5.774,6.746-5.782a17.4,17.4,0,0,1,3.417-.671c0,.045,1.37,2.052,2.984,2.275a5.679,5.679,0,0,0,2.852-2.242,32.351,32.351,0,0,1,4.055.792v-.007S449.506,661.492,453.427,666.6Z" transform="translate(-427.031 -642.761)"/><path class="f" d="M455.264,626.673a3.443,3.443,0,0,1,3.787-2.282c2.9.422,3.153,1.042,3.461,1.761s.9-2.629.9-2.629l-3.422-1.017s-4.142.471-4.439,1.166l-.3.695Z" transform="translate(-445.763 -617.834)"/><path class="f" d="M461.246,612.551s-3.066-2.787-1.751-3.382S461.246,612.551,461.246,612.551Z" transform="translate(-448.359 -608.942)"/><path class="f" d="M458.983,614.256s-3.877-1.461-2.874-2.5S458.983,614.256,458.983,614.256Z" transform="translate(-446.219 -610.573)"/><path class="f" d="M465.478,612.764s-.634-3.594.9-3.568S465.478,612.764,465.478,612.764Z" transform="translate(-452.46 -609)"/><path class="f" d="M466.375,612.144s1.661-3.866,3.207-3.5S466.375,612.144,466.375,612.144Z" transform="translate(-453.142 -608.615)"/><path class="f" d="M466.121,614.625s2.643-3.274,4.034-2.508S466.121,614.625,466.121,614.625Z" transform="translate(-452.973 -610.862)"/></g><path class="i" d="M378.013,574s-3.514.347-3.8,2.63,3.369,11.583,3.892,12.426c.952,1.533,6.557,6.788,6.557,6.788l1.033-.626s-3.975-6.73-4.591-7.36C380.142,586.866,379.2,574.788,378.013,574Z" transform="translate(-296.467 -476.716)"/><path class="ag" d="M373.1,576.921c.009.052,3.243,1.056,5.324,0,0,0,.445-4.8-2.039-4.541s-3.956,1.043-4.018,2.233A4.2,4.2,0,0,0,373.1,576.921Z" transform="translate(-295.244 -475.636)"/><path class="i" d="M404.932,637.707a4.254,4.254,0,0,0,0,2.394,6.858,6.858,0,0,0,1.033,1.322v-4.342Z" transform="translate(-316.734 -518.582)"/><path class="r" d="M702.886,623.222H675.452l9.017-39.057h26.112l1.2.528Z" transform="translate(-496.394 -483.464)"/><path class="m" d="M698.955,623.222H671.52l9.017-39.057h27.434Z" transform="translate(-493.784 -483.464)"/><g transform="translate(182.257 106.192)"><path class="d" d="M731.751,600.49H719.09a.681.681,0,0,0-.626.509.392.392,0,0,0,.391.509h12.661a.681.681,0,0,0,.626-.509A.392.392,0,0,0,731.751,600.49Z" transform="translate(-707.186 -600.49)"/><path class="d" d="M730.424,608.546H717.056a.208.208,0,0,0-.191.155.12.12,0,0,0,.119.156h13.368a.208.208,0,0,0,.191-.156A.12.12,0,0,0,730.424,608.546Z" transform="translate(-706.132 -605.836)"/><path class="d" d="M729.932,610.675H716.564a.208.208,0,0,0-.191.155.12.12,0,0,0,.119.155H729.86a.208.208,0,0,0,.191-.155A.12.12,0,0,0,729.932,610.675Z" transform="translate(-705.805 -607.249)"/><path class="d" d="M702.27,601.507h3.421a.681.681,0,0,0,.626-.509.392.392,0,0,0-.391-.509h-3.421a.681.681,0,0,0-.626.509A.393.393,0,0,0,702.27,601.507Z" transform="translate(-696.18 -600.49)"/><path class="d" d="M725.551,623.93H712.89a.68.68,0,0,0-.626.509.392.392,0,0,0,.391.509h12.661a.681.681,0,0,0,.626-.509A.393.393,0,0,0,725.551,623.93Z" transform="translate(-703.072 -616.046)"/><path class="d" d="M724.223,631.986H710.855a.208.208,0,0,0-.191.155.12.12,0,0,0,.119.155h13.368a.208.208,0,0,0,.191-.155A.12.12,0,0,0,724.223,631.986Z" transform="translate(-702.016 -621.393)"/><path class="d" d="M723.732,634.115H710.364a.208.208,0,0,0-.191.155.12.12,0,0,0,.119.155H723.66a.208.208,0,0,0,.191-.155A.12.12,0,0,0,723.732,634.115Z" transform="translate(-701.69 -622.805)"/><path class="d" d="M696.07,624.947h3.421a.681.681,0,0,0,.626-.509.393.393,0,0,0-.392-.509H696.3a.681.681,0,0,0-.626.509A.392.392,0,0,0,696.07,624.947Z" transform="translate(-692.065 -616.046)"/><path class="d" d="M720.611,647.371H707.95a.68.68,0,0,0-.626.509.392.392,0,0,0,.391.509h12.661a.681.681,0,0,0,.626-.509A.393.393,0,0,0,720.611,647.371Z" transform="translate(-699.793 -631.603)"/><path class="d" d="M719.283,655.427H705.915a.208.208,0,0,0-.191.155.12.12,0,0,0,.119.155h13.368a.208.208,0,0,0,.191-.155A.12.12,0,0,0,719.283,655.427Z" transform="translate(-698.738 -636.949)"/><path class="d" d="M718.791,657.556H705.423a.208.208,0,0,0-.191.155.12.12,0,0,0,.12.155h13.368a.208.208,0,0,0,.191-.155A.12.12,0,0,0,718.791,657.556Z" transform="translate(-698.411 -638.362)"/><path class="d" d="M691.13,648.388h3.421a.681.681,0,0,0,.626-.509.393.393,0,0,0-.391-.509h-3.421a.681.681,0,0,0-.626.509A.393.393,0,0,0,691.13,648.388Z" transform="translate(-688.787 -631.603)"/><path class="d" d="M714.847,671.766H702.186a.681.681,0,0,0-.626.509.393.393,0,0,0,.391.509h12.661a.681.681,0,0,0,.626-.509A.393.393,0,0,0,714.847,671.766Z" transform="translate(-695.968 -647.793)"/><path class="d" d="M713.519,679.823H700.151a.208.208,0,0,0-.191.155.12.12,0,0,0,.12.155h13.368a.207.207,0,0,0,.191-.155A.12.12,0,0,0,713.519,679.823Z" transform="translate(-694.913 -653.14)"/><path class="d" d="M713.028,681.952H699.66a.208.208,0,0,0-.191.155.12.12,0,0,0,.119.155h13.368a.208.208,0,0,0,.191-.155A.12.12,0,0,0,713.028,681.952Z" transform="translate(-694.587 -654.553)"/><path class="d" d="M689.022,671.766H685.6a.681.681,0,0,0-.626.509.393.393,0,0,0,.391.509h3.421a.681.681,0,0,0,.626-.509A.393.393,0,0,0,689.022,671.766Z" transform="translate(-684.961 -647.793)"/></g><g transform="translate(192.96 100.461)"><path class="e" d="M728.546,586.571H717.914a1.131,1.131,0,0,1-1.1-1.385l.4-1.734H730.3l-.487,2.111A1.3,1.3,0,0,1,728.546,586.571Z" transform="translate(-716.783 -583.451)"/><path class="ai" d="M756.868,583.451l.9.24h-.956Z" transform="translate(-743.348 -583.451)"/></g><g transform="translate(185.36 137.942)"><path class="e" d="M721.583,695.8a.907.907,0,0,1-.266.642.907.907,0,0,1-.642.266H695.1a.908.908,0,0,1,0-1.817h25.579a.91.91,0,0,1,.909.908Z" transform="translate(-694.187 -694.887)"/><path class="l" d="M773.529,694.887l3.341.739-3.341,1.078Z" transform="translate(-746.843 -694.887)"/><path class="l" d="M700.731,694.887V696.7H695.1a.908.908,0,0,1,0-1.817Z" transform="translate(-694.187 -694.887)"/></g><path class="h" d="M409.731,700.913H143.439a.355.355,0,0,1-.354-.354h0a.355.355,0,0,1,.354-.354H409.731a.355.355,0,0,1,.354.354h0A.355.355,0,0,1,409.731,700.913Z" transform="translate(-143.085 -560.474)"/></svg>
