<?xml version="1.0" encoding="UTF-8" standalone="no"?>
<svg
   width="30"
   height="30"
   viewBox="0 0 30 30"
   version="1.1"
   id="svg74"
   sodipodi:docname="hris-icon.svg"
   inkscape:version="1.1 (c4e8f9ed74, 2021-05-24)"
   xmlns:inkscape="http://www.inkscape.org/namespaces/inkscape"
   xmlns:sodipodi="http://sodipodi.sourceforge.net/DTD/sodipodi-0.dtd"
   xmlns="http://www.w3.org/2000/svg"
   xmlns:svg="http://www.w3.org/2000/svg">
  <sodipodi:namedview
     id="namedview76"
     pagecolor="#ffffff"
     bordercolor="#666666"
     borderopacity="1.0"
     inkscape:pageshadow="2"
     inkscape:pageopacity="0.0"
     inkscape:pagecheckerboard="0"
     showgrid="false"
     inkscape:zoom="9.1166667"
     inkscape:cx="9.488117"
     inkscape:cy="8.9945155"
     inkscape:window-width="1366"
     inkscape:window-height="699"
     inkscape:window-x="0"
     inkscape:window-y="32"
     inkscape:window-maximized="1"
     inkscape:current-layer="svg74" />
  <defs
     id="defs42">
    <style
       id="style37">.a{fill:#4965de;}.b{clip-path:url(#a);}</style>
    <clipPath
       id="a">
      <rect
         class="a"
         width="30"
         height="30"
         transform="translate(405 2430)"
         id="rect39" />
    </clipPath>
  </defs>
  <g
     class="b"
     transform="translate(-405 -2430)"
     clip-path="url(#a)"
     id="g72">
    <g
       transform="translate(405 2430)"
       id="g70">
      <path
         class="a"
         d="M7,15.656H5.744a1.455,1.455,0,0,1-1.458-1.449.439.439,0,1,0-.879,0,2.335,2.335,0,0,0,2.337,2.328H7a.439.439,0,1,0,0-.879Z"
         id="path44" />
      <path
         class="a"
         d="M11.134,18.909H7.38a2.247,2.247,0,0,0-2.249,2.24.439.439,0,0,0,.879,0,1.367,1.367,0,0,1,1.37-1.361h3.754a.439.439,0,1,0,0-.879Z"
         id="path46" />
      <path
         class="a"
         d="M14.714,18.909H12.892a.439.439,0,1,0,0,.879h1.823a.439.439,0,1,0,0-.879Z"
         id="path48" />
      <path
         class="a"
         d="M11.625,10.37a.439.439,0,0,0-.439.439,2.288,2.288,0,0,1-2.292,2.279.439.439,0,0,0,0,.879,3.168,3.168,0,0,0,3.171-3.158A.439.439,0,0,0,11.625,10.37Z"
         id="path50" />
      <path
         class="a"
         d="M10.814,3.726A1.909,1.909,0,0,0,8.786,5.5a.44.44,0,0,0,.41.467h.029a.44.44,0,0,0,.438-.411A1.029,1.029,0,0,1,10.758,4.6a.439.439,0,0,0,.056-.877Z"
         id="path52" />
      <path
         class="a"
         d="M9.337,20.865a.439.439,0,0,0,0,.879,1.307,1.307,0,1,1,0,2.615.439.439,0,1,0,0,.879,2.186,2.186,0,1,0,0-4.373Z"
         id="path54" />
      <path
         class="a"
         d="M13.834,10.517a.439.439,0,0,0,0,.879,1.05,1.05,0,1,1,0,2.1.439.439,0,0,0,0,.879,1.929,1.929,0,1,0,0-3.858Z"
         id="path56" />
      <path
         class="a"
         d="M6.093,7.723a.439.439,0,1,0,0,.879,1.805,1.805,0,1,1,0,3.61.439.439,0,0,0,0,.879,2.684,2.684,0,1,0,0-5.368Z"
         id="path58" />
      <path
         class="a"
         d="M26.752,7.7A1.493,1.493,0,1,0,28.25,9.2,1.5,1.5,0,0,0,26.752,7.7Zm0,2.107a.614.614,0,1,1,.619-.614A.617.617,0,0,1,26.752,9.81Z"
         id="path60" />
      <path
         class="a"
         d="M28.22,18.95a1.493,1.493,0,1,0,1.5,1.493A1.5,1.5,0,0,0,28.22,18.95Zm0,2.107a.614.614,0,1,1,.619-.614A.617.617,0,0,1,28.22,21.057Z"
         id="path62" />
      <path
         class="a"
         d="M27.3,13.683a1.493,1.493,0,0,0-.7.175l-.857-.852a.439.439,0,1,0-.62.623l.854.85a1.48,1.48,0,0,0-.174.7,1.5,1.5,0,1,0,1.5-1.493Zm0,2.107a.614.614,0,1,1,.619-.614A.617.617,0,0,1,27.3,15.79Z"
         id="path64" />
      <path
         class="a"
         d="M26.308,23.537a1.493,1.493,0,1,0,1.5,1.493A1.5,1.5,0,0,0,26.308,23.537Zm0,2.107a.614.614,0,1,1,.619-.614A.617.617,0,0,1,26.308,25.644Z"
         id="path66" />
      <path
         class="a"
         d="M21.166,8.258a1.243,1.243,0,0,0,.811-.335l1.7-1.689a1.494,1.494,0,1,0-.69-.553L21.357,7.3a.415.415,0,0,1-.191.079H17.539V4.471h1.02a1.493,1.493,0,1,0,0-.879h-1.02V3.525a3.543,3.543,0,0,0-6.759-1.468c-.088-.006-.175-.009-.262-.009A3.73,3.73,0,0,0,6.785,5.677,3.735,3.735,0,0,0,2.521,9.356a3.662,3.662,0,0,0,.235,1.3A5.049,5.049,0,0,0,1.08,17.723a5.09,5.09,0,0,0,1.691,1.63,3.7,3.7,0,0,0,.681,3.79.439.439,0,1,0,.658-.582,2.826,2.826,0,0,1-.71-1.873,2.791,2.791,0,0,1,.326-1.316,2.848,2.848,0,0,1,1.166-1.178.439.439,0,0,0-.419-.773,3.729,3.729,0,0,0-1.29,1.155,4.172,4.172,0,0,1,.274-7.3,4.31,4.31,0,0,1,1.91-.456.439.439,0,0,0,0-.879,5.078,5.078,0,0,0-1.813.333A2.794,2.794,0,0,1,3.4,9.356a2.857,2.857,0,0,1,3.724-2.7.439.439,0,0,0,.568-.482,2.836,2.836,0,0,1,2.825-3.245,2.905,2.905,0,0,1,.47.039,2.847,2.847,0,0,1,2.385,2.8.439.439,0,0,0,.879,0,3.724,3.724,0,0,0-2.574-3.532A2.664,2.664,0,0,1,16.66,3.525v.049h-.845a.439.439,0,1,0,0,.879h.845V7.38H13.105a1.455,1.455,0,0,1-1.458-1.449.439.439,0,0,0-.879,0,2.335,2.335,0,0,0,2.337,2.328H16.66v7.4H9.531a.439.439,0,1,0,0,.879H16.66v6.034H15.3a2.247,2.247,0,0,0-2.249,2.24.439.439,0,0,0,.879,0,1.367,1.367,0,0,1,1.37-1.361H16.66v3.027c0,.069,0,.137-.009.2h-.836a.439.439,0,1,0,0,.879h.611a2.667,2.667,0,0,1-4.741.222,3.722,3.722,0,0,0,1.431-.862.439.439,0,0,0-.61-.633,2.842,2.842,0,0,1-1.511.761,2.9,2.9,0,0,1-.477.04,2.85,2.85,0,0,1-2.854-2.838c0-.04,0-.082,0-.123a3.73,3.73,0,0,0,.985-.59.439.439,0,0,0,.056-.619.444.444,0,0,0-.619-.056,2.925,2.925,0,0,1-2.076.654.439.439,0,1,0-.073.876,3.8,3.8,0,0,0,.846-.025,3.73,3.73,0,0,0,3.731,3.6c.089,0,.179,0,.269-.01a3.543,3.543,0,0,0,6.753-1.482V25.5h2.33a.415.415,0,0,1,.191.079l1.048,1.043a1.48,1.48,0,0,0-.224.784,1.5,1.5,0,1,0,.888-1.363l-1.092-1.087a1.243,1.243,0,0,0-.811-.335h-2.33V22.276h3.82a1.493,1.493,0,1,0,0-.879h-3.82V18.453H22.11a1.493,1.493,0,1,0,0-.879H17.539v-3.2h1.089a1.493,1.493,0,1,0,0-.879H17.539V10.961h4.788a.416.416,0,0,1,.191.079l.9.9a.439.439,0,1,0,.62-.623l-.9-.9a1.243,1.243,0,0,0-.811-.335H17.539V8.258Zm3.059-4.026a.614.614,0,1,1-.619.614A.617.617,0,0,1,24.225,4.233Zm-4.234-.816a.614.614,0,1,1-.619.614A.617.617,0,0,1,19.991,3.417Zm2.39,23.378a.614.614,0,1,1-.619.614A.617.617,0,0,1,22.381,26.795Zm.41-5.573a.614.614,0,1,1-.619.614A.617.617,0,0,1,22.791,21.222Zm.751-3.823a.614.614,0,1,1-.619.614A.617.617,0,0,1,23.542,17.4Zm-3.483-4.077a.614.614,0,1,1-.619.614A.617.617,0,0,1,20.059,13.322Z"
         id="path68" />
    </g>
  </g>
</svg>
