<?xml version="1.0" encoding="UTF-8" standalone="no"?>
<svg
   width="30"
   height="30"
   viewBox="0 0 30 30"
   version="1.1"
   id="svg74"
   sodipodi:docname="hris-icon.svg"
   inkscape:version="1.1 (c4e8f9ed74, 2021-05-24)"
   xmlns:inkscape="http://www.inkscape.org/namespaces/inkscape"
   xmlns:sodipodi="http://sodipodi.sourceforge.net/DTD/sodipodi-0.dtd"
   xmlns="http://www.w3.org/2000/svg"
   xmlns:svg="http://www.w3.org/2000/svg">
  <sodipodi:namedview
     id="namedview76"
     pagecolor="#ffffff"
     bordercolor="#666666"
     borderopacity="1.0"
     inkscape:pageshadow="2"
     inkscape:pageopacity="0.0"
     inkscape:pagecheckerboard="0"
     showgrid="false"
     inkscape:zoom="25.785827"
     inkscape:cx="13.592738"
     inkscape:cy="29.046964"
     inkscape:window-width="1366"
     inkscape:window-height="699"
     inkscape:window-x="0"
     inkscape:window-y="32"
     inkscape:window-maximized="1"
     inkscape:current-layer="svg74" />
  <defs
     id="defs42">
    <style
       id="style37">.a{fill:#4965de;}.b{clip-path:url(#a);}</style>
    <clipPath
       id="a">
      <rect
         class="a"
         width="30"
         height="30"
         transform="translate(405 2430)"
         id="rect39" />
    </clipPath>
  </defs>
  <path
     class="a"
     d="m 27.455913,2.0893067 h -3.1 V 0.53730667 a 0.517,0.517 0 0 0 -1.034,0 V 2.0893067 H 6.7659127 V 0.53730667 a 0.517,0.517 0 0 0 -1.034,0 V 2.0893067 h -3.1 a 2.586,2.586 0 0 0 -2.59,2.586 V 27.434307 a 2.586,2.586 0 0 0 2.586,2.586 H 27.455913 a 2.586,2.586 0 0 0 2.586,-2.586 V 4.6753067 a 2.586,2.586 0 0 0 -2.586,-2.586 z m -26.3800003,2.586 a 1.552,1.552 0 0 1 1.552,-1.552 h 3.1 v 0.61 a 1.552,1.552 0 1 0 1.034,0 v -0.61 H 23.317913 v 0.61 a 1.552,1.552 0 1 0 1.034,0 v -0.61 h 3.1 a 1.552,1.552 0 0 1 1.552,1.552 V 10.368307 H 1.0759127 Z m 5.172,0 a 0.517,0.517 0 1 1 -0.517,0.517 0.517,0.517 0 0 1 0.518,-0.517 z m 17.5860003,0 a 0.517,0.517 0 1 1 -0.517,0.517 0.517,0.517 0 0 1 0.518,-0.517 z m 5.172,22.7590003 a 1.552,1.552 0 0 1 -1.552,1.552 H 2.6279127 a 1.552,1.552 0 0 1 -1.552,-1.552 v -16.035 H 29.006913 Z"
     id="path9"
     style="fill:#4965de" />
  <path
     class="a"
     d="m 19.179913,6.744307 h -8.276 a 0.517,0.517 0 1 0 0,1.034 h 8.276 a 0.517,0.517 0 0 0 0,-1.034 z"
     id="path11"
     style="fill:#4965de" />
  <path
     class="a"
     d="m 3.6619127,19.158307 h 5.172 a 0.517,0.517 0 0 0 0.517,-0.517 v -5.173 a 0.517,0.517 0 0 0 -0.517,-0.517 h -5.172 a 0.517,0.517 0 0 0 -0.517,0.517 v 5.172 a 0.517,0.517 0 0 0 0.517,0.518 z m 0.517,-5.172 h 4.139 v 4.138 h -4.138 z"
     id="path13"
     style="fill:#4965de" />
  <path
     class="a"
     d="m 12.455913,19.158307 h 5.172 a 0.517,0.517 0 0 0 0.517,-0.517 v -5.173 a 0.517,0.517 0 0 0 -0.517,-0.517 h -5.172 a 0.517,0.517 0 0 0 -0.517,0.517 v 5.172 a 0.517,0.517 0 0 0 0.517,0.518 z m 0.517,-5.172 h 4.138 v 4.138 h -4.138 z"
     id="path15"
     style="fill:#4965de" />
  <path
     class="a"
     d="m 21.248913,19.158307 h 5.172 a 0.517,0.517 0 0 0 0.517,-0.517 v -5.173 a 0.517,0.517 0 0 0 -0.517,-0.517 h -5.172 a 0.517,0.517 0 0 0 -0.517,0.517 v 5.172 a 0.517,0.517 0 0 0 0.517,0.518 z m 0.517,-5.172 h 4.138 v 4.138 h -4.138 z"
     id="path17"
     style="fill:#4965de" />
  <path
     class="a"
     d="m 3.6619127,27.434307 h 5.172 a 0.517,0.517 0 0 0 0.517,-0.517 v -5.173 a 0.517,0.517 0 0 0 -0.517,-0.517 h -5.172 a 0.517,0.517 0 0 0 -0.517,0.517 v 5.172 a 0.517,0.517 0 0 0 0.517,0.518 z m 0.517,-5.172 h 4.139 v 4.138 h -4.138 z"
     id="path19"
     style="fill:#4965de" />
  <path
     class="a"
     d="m 12.455913,27.434307 h 5.172 a 0.517,0.517 0 0 0 0.517,-0.517 v -5.173 a 0.517,0.517 0 0 0 -0.517,-0.517 h -5.172 a 0.517,0.517 0 0 0 -0.517,0.517 v 5.172 a 0.517,0.517 0 0 0 0.517,0.518 z m 0.517,-5.172 h 4.138 v 4.138 h -4.138 z"
     id="path21"
     style="fill:#4965de" />
  <path
     class="a"
     d="m 23.834913,27.434307 a 3.1,3.1 0 0 0 3.1,-3.1 3.052,3.052 0 0 0 -0.378,-1.479 l 0.745,-0.74 a 0.51901638,0.51901638 0 1 0 -0.734,-0.734 l -0.667,0.657 a 3.1,3.1 0 1 0 -2.069,5.4 z m 0,-5.172 a 2.038,2.038 0 0 1 1.345,0.517 l -1.345,1.34 -0.667,-0.672 a 0.51901638,0.51901638 0 0 0 -0.734,0.734 l 1.034,1.034 a 0.517,0.517 0 0 0 0.734,0 l 1.552,-1.578 a 2.069,2.069 0 1 1 -1.919,-1.376 z"
     id="path23"
     style="fill:#4965de" />
</svg>
