<svg xmlns="http://www.w3.org/2000/svg" width="242.485" height="145.172" viewBox="0 0 242.485 145.172"><defs><style>.a{fill:#ebf3fa;}.b{fill:#233862;}.c{fill:#2a4e96;}.d{fill:#aec3ff;}.e{fill:#ffb27d;}.f{fill:#ed7d2b;}.g{fill:#f99746;}.h{fill:#fff;}.i{fill:#e2915a;}.j{fill:#db6516;}.k{fill:#9db0f4;}.l{fill:#163560;}.m{fill:#ed975d;}.n{fill:#2b478b;}.o{fill:#6bb7bf;}.p{fill:#86d1cd;}.q{fill:#f1a34f;}.r{fill:#db7714;}.s{fill:#5685d8;}.t{fill:#739af0;}.u{fill:#a9453d;}.v{fill:#2e3552;}</style></defs><g transform="translate(0 0)"><path class="a" d="M367.983,299.6,442.8,299.2l19.942-.006,6.607,0,19.98-.006,91.28-.025s20.879-27.02-1.423-52.682c-23.123-26.607-34.366-4.938-41.474-42.391-17.891-94.275-194.777-39.4-148.381,40.82C406.033,273.8,356.443,258.443,367.983,299.6Z" transform="translate(-352.955 -154.424)"/><g transform="translate(57.412 0.876)"><path class="b" d="M1275.353,1743.1s.284,3.288-.411,3.63l-8.895-.018s0-1.026,1.429-1.255,3.938-1.065,4.363-2.927S1275.353,1743.1,1275.353,1743.1Z" transform="translate(-1231.198 -1603.343)"/><path class="b" d="M1565.888,1738.111s.267,4.56-.427,4.9l-8.895-.018s0-1.026,1.429-1.255,3.938-1.065,4.363-2.927S1565.888,1738.111,1565.888,1738.111Z" transform="translate(-1496.211 -1599.63)"/><path class="c" d="M1356.031,1141.352a16.647,16.647,0,0,1-2.521,1.075,11.239,11.239,0,0,1-2.417.068c-3.025-8.11-12.407-41.078-12.407-41.078a142.883,142.883,0,0,1-3.763,25.516c-.045.2-.092.39-.137.583v0c-.041.176-.084.35-.125.522a.2.2,0,0,0,0,.023c-2.075,8.624-4.156,14.5-4.156,14.5s-.537.68-2.033.369a3.9,3.9,0,0,1-2.286-1.109c1.109-35.128,1.729-54.936,1.729-54.936s14.85-8.022,18.883-1.165S1356.031,1141.352,1356.031,1141.352Z" transform="translate(-1286.051 -1002.31)"/><path class="d" d="M1260.887,546.16a68.334,68.334,0,0,1-2.227-18.828c.02-7.7.712-13.124-1.605-14.039,0,0-7.161-2.081-12.089-3a24.362,24.362,0,0,0-2.318-1.153c-1.556-.632-7.623-9.451-8.651-11.562s-2.731-11.311-2.731-11.311l-2.364.754s-.71,10.326-.37,13.018,7.852,14.265,8.476,15.277h0c2.674,9.775,0,25.682,1.222,29.229.628,1.824,12.288,5.167,18.67,4.747.318-.021.623-.051.913-.092h0c1.51-.21,2.608-.692,3.01-1.538A2.093,2.093,0,0,0,1260.887,546.16Z" transform="translate(-1196.891 -458.012)"/><path class="e" d="M1225.118,444.2s1.336-3.882.359-3.994-3.429-.1-3.731.555,1.008,4.193,1.008,4.193Z" transform="translate(-1190.743 -415.947)"/><path class="f" d="M888.985,497.8,881.1,493.03a2.449,2.449,0,0,1,3.364-.828,1.08,1.08,0,0,0,1.482-.366l2.134-3.529,1.847,1.117-2.134,3.529a1.08,1.08,0,0,0,.365,1.483,2.449,2.449,0,0,1,.828,3.363Z" transform="translate(-880.043 -459.872)"/><path class="g" d="M909.119,504.847l-5.242-3.17c-1.214-1.014-.621-1.881-.012-2.031a2.444,2.444,0,0,1,1.854.283,1.079,1.079,0,0,0,1.482-.366l2.134-3.529.725.438L907.925,500a1.079,1.079,0,0,0,.365,1.483,2.45,2.45,0,0,1,.828,3.363Z" transform="translate(-900.177 -466.92)"/><path class="g" d="M953.9,203.19l-6.382,8.045a11.791,11.791,0,0,1-9.731,5.575h0a12,12,0,0,1-3.63-.4,2.446,2.446,0,0,0-2.632,1.239l-.125.207-.681,1.125-1.344-.813.685-1.135a2.751,2.751,0,0,0-.1-3.217,11.87,11.87,0,0,1-1.287-13.978L933,190.548Z" transform="translate(-921.89 -188.253)"/><path class="f" d="M874.385,182.521c.521-3.014-.936-4.657-2.48-6.4-1.234-1.39-2.51-2.828-2.784-4.967a6.269,6.269,0,0,1,2.749-6.027,4.048,4.048,0,0,1,4.495-.085c1.952,1.254,2.678,3.682,2.1,7.02a20.023,20.023,0,0,1-1.383,4.495l-1.225-.568c.034-.075,3.407-7.479-.22-9.81a2.745,2.745,0,0,0-3.043.09,4.963,4.963,0,0,0-2.131,4.714c.221,1.726,1.306,2.949,2.455,4.243,1.609,1.813,3.433,3.867,2.8,7.522Z" transform="translate(-869.071 -164.405)"/><g transform="translate(19.707 16.84)"><path class="g" d="M1094.371,366.7c2.427-1.862,4.559-1.334,6.815-.774,1.8.447,3.67.91,5.693.159a6.269,6.269,0,0,0,4.061-5.234,4.048,4.048,0,0,0-2.012-4.02c-2.018-1.147-4.5-.662-7.191,1.4a20.021,20.021,0,0,0-3.338,3.313l1.072.821c.05-.065,5.041-6.491,8.79-4.361a2.745,2.745,0,0,1,1.333,2.737,4.962,4.962,0,0,1-3.185,4.077c-1.632.606-3.218.213-4.9-.2-2.353-.583-5.019-1.244-7.962,1.014Z" transform="translate(-1093.549 -356.227)"/></g><path class="f" d="M937.786,216.81a12,12,0,0,1-3.63-.4,2.446,2.446,0,0,0-2.632,1.239l-.125.207a2.033,2.033,0,0,0-.992.936l-1.033-.624.685-1.135a2.751,2.751,0,0,0-.1-3.217,11.87,11.87,0,0,1-1.287-13.978L933,190.548l3.456,2.09S922.42,211.651,937.786,216.81Z" transform="translate(-921.89 -188.253)"/><path class="g" d="M938.546,482.975l-3.443-2.082a1,1,0,0,1-.336-1.364h0a1,1,0,0,1,1.364-.336l3.443,2.082a1,1,0,0,1,.336,1.364h0A1,1,0,0,1,938.546,482.975Z" transform="translate(-928.87 -451.428)"/><g transform="translate(10.73 10.525)"><path class="h" d="M991.293,293.743l.37-.611c1.751.946,1.976.834,2.7-.355l3.615-5.978c.509-.842.252-1.088-.375-1.58l-.445-.382.329-.545a21.287,21.287,0,0,0,4.166,1.391l-5.093,8.422c-.739,1.222-.73,1.431.9,2.532l-.37.611Z" transform="translate(-991.293 -284.292)"/></g><path class="e" d="M1222.036,441.012s-.126,1.336.3,1.588.58-1.588.58-1.588.025,1.51.353,1.612.529-1.738.529-1.738.035,1.462.257,1.412.373-1.412.373-1.412.1,1.061.4.871.59-1.33.59-1.33Z" transform="translate(-1191.034 -416.195)"/><path class="e" d="M1260.632,452.269a3.819,3.819,0,0,0,1.115-1.372c.2-.656.794-1.758.479-1.891s-1.235,1.286-1.235,1.286Z" transform="translate(-1226.257 -424.013)"/><path class="e" d="M1439.25,714.352l-.115.6a2.116,2.116,0,0,0,1.712,2.56c2.244.728,4.135,1.064,4.357-.388a30.985,30.985,0,0,1,.152-3.885,6.625,6.625,0,0,1,.3-1.1l-4.434-.969-1.354-.045Z" transform="translate(-1389.04 -663.126)"/><path class="i" d="M1443.8,711.122l-.413,2.177c4.213,1.116,6.056-.765,6.2-1.163l-4.434-.969Z" transform="translate(-1392.967 -663.126)"/><path class="e" d="M1443.152,625.634c-1.307,2.655-4.9,1.549-6.409.935-.426-.172-.687-.306-.687-.306-.458-.271-.516-1.13-.357-2.189a16.545,16.545,0,0,1,2.024-5.64c.835-1,2.152-1.964,5.542-.05S1444.827,622.232,1443.152,625.634Z" transform="translate(-1385.882 -577.527)"/><path class="b" d="M1450.745,596.424a12.51,12.51,0,0,0,3.758.035,5.531,5.531,0,0,1,3.986,1.548.972.972,0,0,0-.047-.421.876.876,0,0,1,.189.57c.023.03.032.048.023.051a1.123,1.123,0,0,1,.516.181s-.138-.061-.215.017a.09.09,0,0,1-.03.019c2.068,1.828,1.228,5.671.213,6.33a27.791,27.791,0,0,0-3.32,2.975,5.4,5.4,0,0,1,.5-1.676c.428-.879-.372-1.1-1.264-1.808s.281-1.647-.4-2.612-4.044-1.453-3.848-1.988C1449.723,598.87,1450.711,596.547,1450.745,596.424Z" transform="translate(-1399.274 -558.497)"/><path class="h" d="M1444.024,693.22s-.218.328-1.093-.059c0,0-.735-.326-.565-.713A2.58,2.58,0,0,1,1444.024,693.22Z" transform="translate(-1392.014 -646.091)"/><path class="f" d="M1257.433,803.493s-2.022,13.42-17.149,22.74l-1.412,4.1h5.46s13.549-11.362,14.457-26.455Z" transform="translate(-1206.407 -747.388)"/><path class="j" d="M1450.3,782.352v-2.035l2.494.706-1.138,1.714Z" transform="translate(-1399.274 -726.247)"/><path class="k" d="M1425,747.919l-1.459,1.247a5.736,5.736,0,0,0,.58,3.632l2.941-1.682A4.2,4.2,0,0,1,1425,747.919Z" transform="translate(-1374.788 -696.693)"/><path class="k" d="M1464.5,763.818a5.445,5.445,0,0,0,1.058,2.361s3.313-.58,4.233-2.168l-1.388-2.168S1468.073,763.323,1464.5,763.818Z" transform="translate(-1412.228 -709.394)"/><path class="e" d="M1654.495,1175.648a18.565,18.565,0,0,1-.271,3.6,12.735,12.735,0,0,1-2.088,2.96c-.571.416.123-2.406-.056-2.923s-.4,1.018-.664,1.082-.336-1.29-.4-1.778,1.127-1.836,1.481-2.927S1654.495,1175.648,1654.495,1175.648Z" transform="translate(-1582.369 -1086.44)"/><path class="d" d="M1541.249,794.1s2.913.794,4.888,5.138c2.071,4.556,7.612,14.675,7.818,16.072s-.367,14.44-.367,14.44-2.425.094-3.174-1.057c0,0-.844-11.451-1.218-12.073s-9.916-12-9.112-14.89A50.833,50.833,0,0,0,1541.249,794.1Z" transform="translate(-1481.132 -738.822)"/><path class="k" d="M1515.526,959.938a7.918,7.918,0,0,1-3.01,1.538h0a2.4,2.4,0,0,1-.913.092c-5.333-.55-4.513-21.267-1.929-22.8,2.723-1.614,3.69.837,3.69.837a68.342,68.342,0,0,0,2.227,18.828A2.093,2.093,0,0,1,1515.526,959.938Z" transform="translate(-1451.591 -870.288)"/><path class="b" d="M1422.775,1591.165c.035-.161.077-.336.125-.522C1422.859,1590.819,1422.817,1590.993,1422.775,1591.165Z" transform="translate(-1374.166 -1465.434)"/><path class="b" d="M1425.762,1284.281c1.632-7.723-.127-28.417.659-28.811.807-.4,3.1,3.295,3.1,3.295A142.886,142.886,0,0,1,1425.762,1284.281Z" transform="translate(-1376.89 -1159.658)"/></g><g transform="translate(41.571 50.638)"><path class="e" d="M966.4,1711.286l-.47-3.387,1.976-1.651.622,4.485Z" transform="translate(-941.587 -1620.651)"/><path class="b" d="M961.869,1753.542h-8.054a4.423,4.423,0,0,1,.228-2.159c.4-.894,1.03-1.445,1.088-2.13a2.419,2.419,0,0,0,2.306.709,8.835,8.835,0,0,0,1.4,1.812C959.36,1752.152,961.707,1752.018,961.869,1753.542Z" transform="translate(-930.494 -1659.881)"/><path class="g" d="M923.84,1196.753c-.527,4.237-.958,8.232-1.308,11.955a284.794,284.794,0,0,0-1.507,31.962s-.135.359-1.3.364a6.652,6.652,0,0,1-1.3-.14s-4.2-12.954-3.873-20.326a11.3,11.3,0,0,1,.328-2.386c1.007-3.772-3.726-18.2,1.419-23.567S924.083,1194.808,923.84,1196.753Z" transform="translate(-894.083 -1151.859)"/><path class="f" d="M923.84,1196.753c-.527,4.237-.958,8.232-1.308,11.955l-7.977,11.861a11.3,11.3,0,0,1,.328-2.386c1.007-3.772-3.726-18.2,1.419-23.567S924.083,1194.808,923.84,1196.753Z" transform="translate(-894.083 -1151.859)"/><path class="e" d="M1095.408,735.707s-.194-.968-.413-1.707a5.312,5.312,0,0,1,1.044-2.738c.467-.264,1.682,1.182,1.338,2.292-.177.57-.467,2.426-.467,2.426Z" transform="translate(-1059.311 -731.23)"/><path class="e" d="M1088.1,760.266s-.254-.561-.483-.652-.474-1.009-.643-1.373c0,0,.162-.238.447.068.173.187.56.735.56.735Z" transform="translate(-1052.003 -755.789)"/><path class="e" d="M691.473,798.52c-.049.1-.118.284-.179.455q0-.07,0-.138a5.315,5.315,0,0,0-1.8-2.313c-.524-.116-1.262,1.622-.609,2.583.336.494,1.156,2.183,1.156,2.183l1.357-.7s.078-.611.271-.765.158-1.1.213-1.5C691.88,798.324,691.656,798.144,691.473,798.52Z" transform="translate(-688.627 -790.787)"/><path class="e" d="M815.946,1705.75c-.114-1.086-.142-3.942-.142-3.942s2.911-.931,2.8-.292a20.56,20.56,0,0,0-.384,4.7l-1.177.7Z" transform="translate(-804.639 -1616.13)"/><path class="g" d="M825.114,1234.088s-11.245,30.823-13.458,44.194a2.242,2.242,0,0,1-1.469.235,1.643,1.643,0,0,1-1.382-.886s-2.031-16.025,2.006-21.588c2.774-3.822-1.2-20.609,5.264-21.955S825.114,1234.088,825.114,1234.088Z" transform="translate(-797.788 -1189.396)"/><path class="l" d="M786.384,839.4h0a.239.239,0,0,0-.009-.04c-.066-.271-.137-.538-.215-.8h0a18.083,18.083,0,0,0-.818-2.264c-.174-.391-.354-.753-.539-1.075l-.082-.144h0a3.23,3.23,0,0,0-1.284-1.391,3.854,3.854,0,0,0-2.116-.088.976.976,0,0,1,.4-.27,3.217,3.217,0,0,0-1.094.466c-5.179-1.158-4.876,6.168-4.524,7.829s-1.316,2.467-3.668,4.166c-4.488,3.242-4.413,6.679-4.413,6.679.04.017.085.037.13.06.181-.444.564-1.286.965-1.464a17.4,17.4,0,0,0-.431,1.74c.684.377,1.63.96,2.657,1.618h0c1.375.88,2.892,1.892,4.107,2.714a2.787,2.787,0,0,1-.03-1.081l.387,1.2.051.157c.776.526,1.388.947,1.7,1.162l.086.058.139.1A6.547,6.547,0,0,1,778.9,855.8c.052-.1.107-.2.164-.3.245-.44.519-.9.814-1.383.106-.173.214-.346.325-.522a0,0,0,0,1,0,0c.089-.142.18-.283.273-.426h0c.22-.34.448-.683.68-1.026.6-.889,1.239-1.772,1.869-2.582a22.644,22.644,0,0,1,2.563-2.874c.025-.051.048-.1.069-.155a5.135,5.135,0,0,0,.278-.886c.022-.093.041-.186.058-.28a12.145,12.145,0,0,0,.188-2.2,12.431,12.431,0,0,1-.028,2.214c-.014.119-.03.229-.048.332h0a4.541,4.541,0,0,1-.136.582,3.045,3.045,0,0,0,.327-.5,3.6,3.6,0,0,0,.17-.376A10.909,10.909,0,0,0,786.384,839.4Z" transform="translate(-761.055 -824.361)"/><path class="e" d="M916.16,943.157a4.565,4.565,0,0,1-2.695.918,3.634,3.634,0,0,1-2.108-1.494c.462-.166.5-.841.074-3.653l.222.01,3.728.178s.087,1.152.244,2.226C915.758,942.245,915.94,943.092,916.16,943.157Z" transform="translate(-891.804 -920.694)"/><path class="m" d="M918.454,939.225s.087,1.152.244,2.226c-2.035.244-3.381-1.445-3.973-2.4Z" transform="translate(-894.877 -920.802)"/><path class="l" d="M889.845,854.021a10.767,10.767,0,0,1-1.78-2.917c-.334-1-.377-4.872,3.52-4.893a5.241,5.241,0,0,1,2.271.493c.912.436,2.287,1.466,1.443,4.979l-.181,1.171Z" transform="translate(-870.429 -836.116)"/><path class="h" d="M867.117,996.35a15.791,15.791,0,0,1-10.943,1.4c-.072-.018-5.016-.806-5.016-.806.085-.232.724-4.052.807-4.265,1.081-2.789,3.056-17.924,4.706-18.67a3.738,3.738,0,0,0,2.656.681c1.187-.1,1.584-.617,1.486-1.169,1.313.621,2.323,1.2,2.323,1.2C864.337,976.518,867.117,996.35,867.117,996.35Z" transform="translate(-836.89 -952.25)"/><path class="e" d="M907.208,869.287s-4.783.792-5.231-2.194-1.366-4.9,1.669-5.527,3.8.418,4.192,1.379S908.441,869,907.208,869.287Z" transform="translate(-882.803 -849.948)"/><path class="l" d="M892.393,854.325s-.792,3.7-2.729,4.517-2.892.408-2.892.408a5.768,5.768,0,0,0,1.365-3.648S891.155,852.8,892.393,854.325Z" transform="translate(-869.377 -843.105)"/><path class="l" d="M947.577,855.483a4.28,4.28,0,0,1,1.449,1.361c.352.725.693,2.275,1.141,2.154,0,0,.635-2.529-.677-3.711C948.1,854.034,947.577,855.483,947.577,855.483Z" transform="translate(-924.844 -843.93)"/><path class="n" d="M974.845,780.211a3.056,3.056,0,0,0-.855-.264,2.653,2.653,0,0,0-.751.078s-1.349,8.389-1.45,8.833-5.788,6.852-7.322,6.826a6.945,6.945,0,0,0-3.33,1.251s3.225,6.819,3.386,8.1c.175,1.394,1.844,22.858,1.844,22.858s-.1,1,1.766.462a6.369,6.369,0,0,0,2.332-.981s-1.714-16.9-2.073-22.153a10.066,10.066,0,0,0-.327-1.961,1.987,1.987,0,0,1,.321-1.688c2.359-3.238,6.084-8.484,6.291-9.6C974.982,790.335,974.845,780.211,974.845,780.211Z" transform="translate(-937.214 -775.665)"/><path class="b" d="M809.714,1753.542H801.66a4.422,4.422,0,0,1,.228-2.159c.4-.894,1.031-1.445,1.088-2.13a2.419,2.419,0,0,0,2.306.709,8.83,8.83,0,0,0,1.4,1.812C807.2,1752.152,809.552,1752.018,809.714,1753.542Z" transform="translate(-791.696 -1659.881)"/><path class="n" d="M726.864,860.453c-.271-1.67-3.737-8.378-3.737-8.378a7.132,7.132,0,0,0-3.633-.133c-1.442.522-8.9-3.69-9.142-4.078s-4.235-7.834-4.235-7.834a.927.927,0,0,0-.862.085.972.972,0,0,0-.528.808s3.084,9.375,3.9,10.826c.495.875,4.654,3.919,7.88,6.2a2.024,2.024,0,0,1,.838,1.924c-.434,3.206-.544,5.011-1.043,10.513-.414,4.564-.572,13.4-.572,13.4a29.822,29.822,0,0,0,6.1,1.415c2.491.166,3.034-2.46,3.034-2.46S727.143,862.171,726.864,860.453Z" transform="translate(-703.314 -830.42)"/><path class="h" d="M948.771,930.176a2.136,2.136,0,0,0,1.267.238c.47-.071.577-.628.577-.628a1.852,1.852,0,0,0-.848,0A3.615,3.615,0,0,0,948.771,930.176Z" transform="translate(-925.933 -912.314)"/></g><g transform="translate(140.976 52.949)"><path class="l" d="M1937.39,866.606a2.782,2.782,0,0,1-1.308,3.99s2.147.774,2.9.482a1.626,1.626,0,0,1-.326.263,6.618,6.618,0,0,0,3.024.291c1.006-.35,3.172-10.121-2.784-10.636,0,0-4.7-1.682-5.692,3.561s-2.8,4.734-2.8,4.734a2.829,2.829,0,0,0,.682.439s.39-.025.511-.187a1.157,1.157,0,0,1-.267.33,5.745,5.745,0,0,0,3.072.314C1935.561,869.782,1937.371,867.74,1937.39,866.606Z" transform="translate(-1920.787 -851.68)"/><path class="b" d="M1941.948,1764.194h7.6a4.172,4.172,0,0,0-.215-2.037c-.38-.843-.972-1.364-1.026-2.01a2.283,2.283,0,0,1-2.176.669,8.341,8.341,0,0,1-1.319,1.709C1944.315,1762.883,1942.1,1762.755,1941.948,1764.194Z" transform="translate(-1931.324 -1672.13)"/><path class="n" d="M1920.682,1259.553a6.9,6.9,0,0,1-1.325.27c-1.2.107-1.372-.25-1.372-.25s-1.189-10.589-5.04-30.829a56.269,56.269,0,0,1-.975-7.14c-.06-.778-.119-1.643-.183-2.658-.174-2.728.24-7.319,2.287-8.526.931-.549,2.2-.4,3.9.944.134.106.272.219.411.34,4.989,4.316,2.944,16.711,3.145,22.538a7.869,7.869,0,0,0,.328,2.29,12.67,12.67,0,0,1,.936,2.57C1923.846,1246.662,1920.682,1259.553,1920.682,1259.553Z" transform="translate(-1903.779 -1170.392)"/><path class="b" d="M1921.534,1237.345l-9.564-12.638c-.06-.778-.119-1.643-.183-2.658-.174-2.728.24-7.319,2.287-8.526l3.9.944c.134.106.272.219.411.34C1923.378,1219.123,1921.333,1231.518,1921.534,1237.345Z" transform="translate(-1903.779 -1173.493)"/><path class="b" d="M2254.657,1552.267l-3.163-6.91a4.175,4.175,0,0,0-1.763,1.043c-.608.7-1.049.573-2.435-.389a7.613,7.613,0,0,1,.915,2.341c.254.031,1.7,1.433,3.188,1.82C2251.992,1550.326,2253.286,1552.727,2254.657,1552.267Z" transform="translate(-2209.867 -1476.196)"/><path class="n" d="M1953.256,1240.014s6.81,23.672,9.3,25.2,15.613,3.619,18.28,4.762a2.007,2.007,0,0,0,.134-1.46,8.705,8.705,0,0,0-.418-1.016s-8.146-6.124-13.508-6.742c-1.331-.153,2.709-20.473-6.282-21.285C1952.552,1238.728,1953.256,1240.014,1953.256,1240.014Z" transform="translate(-1941.626 -1196.952)"/><path class="e" d="M1822.851,761.777s.183-.913.389-1.61a5.013,5.013,0,0,0-.985-2.584c-.44-.249-1.587,1.115-1.262,2.163.167.538.44,2.289.44,2.289Z" transform="translate(-1820.936 -757.553)"/><path class="e" d="M1842.75,784.949s.239-.53.455-.615.448-.952.606-1.3c0,0-.153-.225-.421.064-.164.176-.528.693-.528.693Z" transform="translate(-1840.835 -780.725)"/><path class="e" d="M2196.1,821.042c.047.1.111.268.169.429,0-.044,0-.088,0-.13a5.012,5.012,0,0,1,1.7-2.182c.494-.11,1.191,1.531.574,2.437-.317.466-1.091,2.06-1.091,2.06l-1.28-.661s-.074-.576-.255-.722-.149-1.041-.2-1.416C2195.712,820.857,2195.924,820.687,2196.1,821.042Z" transform="translate(-2162.81 -813.746)"/><path class="e" d="M1968.922,957.5a4.307,4.307,0,0,0,2.542.866,3.429,3.429,0,0,0,1.989-1.41c-.436-.156-.474-.793-.07-3.446l-.209.01-3.518.168s-.082,1.087-.23,2.1C1969.3,956.643,1969.131,957.442,1968.922,957.5Z" transform="translate(-1955.931 -936.311)"/><path class="m" d="M1974.9,953.793s-.082,1.087-.23,2.1c1.92.231,3.19-1.363,3.748-2.269Z" transform="translate(-1961.169 -936.412)"/><path class="l" d="M1965.962,873.406a10.162,10.162,0,0,0,1.68-2.752c.315-.941.356-4.6-3.321-4.616a4.946,4.946,0,0,0-2.143.465c-.86.412-2.158,1.383-1.361,4.7l.171,1.1Z" transform="translate(-1948.31 -856.512)"/><path class="e" d="M1918.667,1008.234s3.45,2.177,9.2.779c.068-.016,3.267-.527,3.267-.527-.08-.219-3.443-5.775-3.521-5.977-1.02-2.631,1.341-15.192-.215-15.9a3.527,3.527,0,0,1-2.506.643c-1.12-.1-1.495-.583-1.4-1.1-1.239.586-2.191,1.13-2.191,1.13C1920.163,988.979,1918.667,1008.234,1918.667,1008.234Z" transform="translate(-1910.087 -966.083)"/><path class="e" d="M1959.228,887.809s4.513.747,4.935-2.07,1.289-4.619-1.574-5.215-3.585.395-3.955,1.3S1958.065,887.542,1959.228,887.809Z" transform="translate(-1946.283 -869.563)"/><path class="l" d="M1983.321,873.692s.747,3.49,2.575,4.262a3.785,3.785,0,0,0,2.729.385,5.442,5.442,0,0,1-1.288-3.442S1984.49,872.257,1983.321,873.692Z" transform="translate(-1969.065 -863.106)"/><path class="l" d="M1959.468,874.784a4.039,4.039,0,0,0-1.367,1.284c-.332.684-.653,2.146-1.076,2.032,0,0-.6-2.386.639-3.5C1958.976,873.417,1959.468,874.784,1959.468,874.784Z" transform="translate(-1944.945 -863.885)"/><path class="g" d="M1856.776,809.388s-2.91,8.846-3.684,10.214c-.466.826-5.709,4.089-8.751,6.24a.515.515,0,0,0-.117.14l0,0c-.76,1.174-3.12,8.443-2.556,9.748,2.373,5.484,4,7.6,4.591,9.143a1.461,1.461,0,0,1-.874,1.9,25.009,25.009,0,0,1-4.106,1.074q-.485.084-1,.149a16.266,16.266,0,0,1-9.451-1.315,2.141,2.141,0,0,1-1.172-2.032c.1-1.735.964-3.452,1.356-7.624.3-3.165-2.435-7.983-2.32-9.668a5.625,5.625,0,0,1,.854-1.98v0c.5-.914.778-1.741.444-2.2-2.226-3.055-7.031-7.267-7.228-8.318-.287-1.546-.158-11.1-.158-11.1a2.876,2.876,0,0,1,.807-.249,2.526,2.526,0,0,1,.708.074s1.273,7.915,1.368,8.334,5.461,6.465,6.907,6.44a8.042,8.042,0,0,1,3.436,1.181,13.883,13.883,0,0,0-1.465,4.885c-.2,1.963,1.107,1.09,1.931-.254a43.671,43.671,0,0,1,3.359-4.412,6.365,6.365,0,0,1,3.187.019c1.361.493,8.4-3.482,8.625-3.848s4-7.391,4-7.391a.874.874,0,0,1,.814.08A.918.918,0,0,1,1856.776,809.388Z" transform="translate(-1822.431 -799.478)"/><path class="h" d="M1967,945.848s-.193.389-.453.4a3.068,3.068,0,0,1-.964-.123,3.742,3.742,0,0,1-.154-.474A4.385,4.385,0,0,1,1967,945.848Z" transform="translate(-1952.741 -929.132)"/><path class="f" d="M2000.668,1080.3a25,25,0,0,1-4.106,1.074c-1.614-2.225-4.344-5.024-3.642-10.172.726-5.322,5.958-10.923,6.586-11.7-.76,1.174-3.12,8.443-2.556,9.748,2.373,5.484,4,7.6,4.591,9.143A1.462,1.462,0,0,1,2000.668,1080.3Z" transform="translate(-1977.718 -1032.996)"/><path class="f" d="M1831.485,943.341c.5-.914.778-1.741.443-2.2-2.226-3.055-7.031-7.267-7.228-8.318.477,1.143,6.3,4.557,7.933,6.026C1834.252,940.3,1831.551,943.27,1831.485,943.341Z" transform="translate(-1824.371 -917.436)"/></g><g transform="translate(45.639 34.396)"><path class="o" d="M785.949,572.8a5.487,5.487,0,0,1,.974,3.2,4.969,4.969,0,0,1-1.29,2.6l1.78.949a7.2,7.2,0,0,0,.875-4.3,5.006,5.006,0,0,0-1.231-1.987A1.709,1.709,0,0,0,785.949,572.8Z" transform="translate(-781.184 -570.471)"/><path class="p" d="M736.086,548.72l-1.127-2.491s5.259.178,7,4.463C741.961,550.692,738.281,548.068,736.086,548.72Z" transform="translate(-734.959 -546.229)"/></g><g transform="translate(23.908 95.146)"><path class="o" d="M490.421,1243.337a4.66,4.66,0,0,1-1.577-2.361,4.22,4.22,0,0,1,.411-2.427l-1.68-.334a6.113,6.113,0,0,0,.345,3.711,4.251,4.251,0,0,0,1.489,1.313A1.451,1.451,0,0,0,490.421,1243.337Z" transform="translate(-487.429 -1238.215)"/><path class="p" d="M500.09,1283.252l1.528,1.749s-4.32,1.147-6.789-1.909C494.829,1283.092,498.466,1284.322,500.09,1283.252Z" transform="translate(-494.179 -1279.152)"/></g><g transform="translate(219.136 105.883)"><path class="q" d="M2711.248,1363.043s-.11-1.643,2.974-2.438c1.382-.356,4.46.277,2.509,3.3-2.029,3.15-3.839,2.012-3.839,2.012s4.233-3.313,2.539-4.828c-1.869-1.672-2.587,1.641-2.587,1.641A4.079,4.079,0,0,0,2711.248,1363.043Z" transform="translate(-2711.247 -1360.516)"/><path class="r" d="M2715.37,1403.374a1.645,1.645,0,0,1-.7-2.011l1.658.288s-.637,1.5.922,1.682C2717.253,1403.333,2715.752,1403.689,2715.37,1403.374Z" transform="translate(-2714.275 -1397.777)"/></g><g transform="translate(110.375 20.79)"><path class="s" d="M1488.142,393.815a3.079,3.079,0,0,1,4.365-.724l1.609-1.539s-1.5-1.142-4.972.906C1486.876,393.8,1488.142,393.815,1488.142,393.815Z" transform="translate(-1486.436 -391.235)"/><path class="t" d="M1472.372,400.277s-.341-2.849,4.427-4.626a4.979,4.979,0,0,0-2.255,3.675Z" transform="translate(-1472.366 -395.263)"/></g><path class="g" d="M1690.639,255.829s1.409-.89,1.557-1.965c0,0,1.372.074,1.669.519,0,0-.63,1.78-1.372,2.114C1692.493,256.5,1690.824,256.608,1690.639,255.829Z" transform="translate(-1561.102 -245.134)"/><path class="g" d="M1138.352,1411.106s-1.5-.949-1.661-2.1c0,0-1.464.079-1.78.554,0,0,.672,1.9,1.464,2.255C1136.374,1411.818,1138.154,1411.936,1138.352,1411.106Z" transform="translate(-1054.16 -1298.869)"/><path class="p" d="M1876.958,573.755s1.51-.954,1.669-2.106c0,0,1.47.079,1.788.556,0,0-.676,1.907-1.47,2.265C1878.945,574.47,1877.157,574.589,1876.958,573.755Z" transform="translate(-1731.064 -535.021)"/><g transform="translate(170.708 55.872)"><path class="e" d="M2164.182,1074.51s-.873-1.059-1.342-1.208-1.378-.852-1.5-.562.611.737.572,1.068-2.318.863-2.3,1.213a1.347,1.347,0,0,0,1.406,1.1c.869-.1,3.074-.62,3.527-.395S2164.182,1074.51,2164.182,1074.51Z" transform="translate(-2159.611 -1047.93)"/><path class="d" d="M2231.106,963.764a18.651,18.651,0,0,1-4.342,4.171,23.987,23.987,0,0,1-10.259,3.933c-1.279-.409-5.209-.837-7.531-1.211h0a4.476,4.476,0,0,1-1.766-.452l.058-2.023s8.523-.451,9.935-1.105a31.99,31.99,0,0,0,5.473-6.352,8.223,8.223,0,0,1,4.291-3.568C2229.851,956.127,2235.1,958.4,2231.106,963.764Z" transform="translate(-2203.028 -942.336)"/><path class="k" d="M2245.562,1053.455l-.435,1.273a23.989,23.989,0,0,1-10.259,3.933c-1.028,0-5.209-.837-7.531-1.211.092.008,6.323.495,7.7.352s7.846-5.741,7.846-5.741Z" transform="translate(-2221.392 -1029.129)"/><path class="b" d="M2371.551,1744.364h9.419c.675-.458-.182-4.932-.182-4.932s-2.571-.975-3.015,1.008-3.275,2.613-4.772,2.854A1.612,1.612,0,0,0,2371.551,1744.364Z" transform="translate(-2352.945 -1655.938)"/><path class="b" d="M2530.679,1744.364h9.419c.675-.458-.182-4.932-.182-4.932s-2.571-.975-3.015,1.008-3.275,2.613-4.772,2.854A1.612,1.612,0,0,0,2530.679,1744.364Z" transform="translate(-2498.103 -1655.938)"/><path class="n" d="M2400.419,1270.533s.423,5.282.921,11.632c.676,8.625,2.5,30.011,2.5,30.011s1.2,1.021,3.845.462a83.726,83.726,0,0,0,2.929-15.8c.01-.138.021-.277.031-.416.627-8.572,1.6-26.622,1.6-26.622Z" transform="translate(-2379.279 -1227.754)"/><path class="b" d="M2398.772,1257.345s.568,7.108,1.065,13.457l9.275,14.675c.01-.138.021-.277.031-.416.627-8.572,1.6-26.622,1.6-26.622Z" transform="translate(-2377.776 -1216.391)"/><path class="n" d="M2429.565,1223.728s6.727,16.744,8.877,23.09c1.532,4.521,5.851,20.381,5.851,20.381a4.342,4.342,0,0,0,3.457-.533s1.607-16.2-1.639-20.772c-1.722-2.424-.428-25.2-7.411-25.393S2429.565,1223.728,2429.565,1223.728Z" transform="translate(-2405.866 -1182.774)"/><path class="e" d="M2459.91,907.83a4.2,4.2,0,0,0,2.9.39,6.007,6.007,0,0,0,1.963-.829,5.779,5.779,0,0,0,.792-.6s-.035-.05-.093-.149a8.475,8.475,0,0,1-.814-5.382,2.125,2.125,0,0,0-.74.122c-1.335.316-4.018,1.077-4.137,1.111h0s-.033.63-.144,1.761c-.009.1-.019.2-.03.311-.014.133-.028.273-.044.417A9.342,9.342,0,0,0,2459.91,907.83Z" transform="translate(-2433.207 -891.559)"/><path class="m" d="M2460.615,905.661c1.993.457,4.966-2.485,4.966-2.485a3.137,3.137,0,0,0-.682-.386c-1.334.316-4.018,1.077-4.136,1.111h0S2460.726,904.53,2460.615,905.661Z" transform="translate(-2434.19 -892.962)"/><path class="e" d="M2447.167,828.622a10.117,10.117,0,0,0,1.864.434c1.528.206,3.536.085,4.167-1.763,1.063-3.111,2.42-4.976-.707-6.246a4.967,4.967,0,0,0-3.473-.457,2.516,2.516,0,0,0-1.287,1.114C2447.123,822.656,2445.9,828.077,2447.167,828.622Z" transform="translate(-2421.418 -817.843)"/><path class="u" d="M2431.286,794.957c1.811,1.3,4.316.022,5.095.368s.918,1.65.932,2.064.068.765,1.125.516a.514.514,0,0,1,.384.023c.438.26-.122,1.52-.291,1.793,0,0-.243.9.3,1.342.065.053,1.125.516,3.678-3.392a3.63,3.63,0,0,0,.165-3.326c-.619-1.331-3.207-2.617-5.4-3.3a2.938,2.938,0,0,0-1.909-.071,3.454,3.454,0,0,0-1.641,1.8A6.885,6.885,0,0,1,2431.286,794.957Z" transform="translate(-2407.436 -790.85)"/><path class="d" d="M2403.156,975.271s-.876.189-1.985.377a21.727,21.727,0,0,1-3.314.354,29.9,29.9,0,0,1-8.676-1.428c-.887,0-1.293-1.375-1.439-3.293a37.78,37.78,0,0,1-.007-4.389c.023-.5.052-1,.082-1.488.063-.97.135-1.9.2-2.725.062-.773.119-1.45.152-1.976,0,0-.126-3.676-.076-6.91a8.79,8.79,0,0,1,1.664-4.778c.946-1,3.685-1.632,4.233-1.719l.064-.01c2.252,1.265,5.286-.444,5.286-.444.069.011.136.028.2.042a11.567,11.567,0,0,1,3.03.579c1.31.714,2.071,8.635,2.071,8.635.218,5.38-.056,14,.369,17.285C2405.154,974.465,2404.105,975.052,2403.156,975.271Z" transform="translate(-2367.654 -933.147)"/><path class="k" d="M2462.431,947.359s-3.356,3.462-5.756,2.752c0,0-.319-.467.761-.617S2459.683,949.406,2462.431,947.359Z" transform="translate(-2430.555 -933.619)"/><path class="h" d="M2452.624,890.75s-.065.4.871.724c0,0,.786.27.93-.143A2.669,2.669,0,0,0,2452.624,890.75Z" transform="translate(-2426.899 -881.979)"/><path class="k" d="M2401.369,1096.531s-4.874,8.152-7.639,9.588a21.192,21.192,0,0,1-5.987,1.711,37.78,37.78,0,0,1-.007-4.389c1.98-.24,5-.623,5-.623Z" transform="translate(-2367.654 -1069.695)"/><path class="k" d="M2396.43,1049.874l-2.6,9.378s-3.057.193-4.532.14c.062-.97.064-1,.13-1.827C2389.429,1057.565,2392.939,1055.736,2396.43,1049.874Z" transform="translate(-2369.135 -1027.135)"/><path class="e" d="M2244.837,1145.49s-.873-1.059-1.342-1.208-1.378-.852-1.5-.562.61.736.572,1.068-2.318.863-2.3,1.213a1.347,1.347,0,0,0,1.406,1.1c.869-.1,3.074-.62,3.527-.394S2244.837,1145.49,2244.837,1145.49Z" transform="translate(-2233.186 -1112.679)"/><path class="d" d="M2444.216,955.279s.154,4.967-11.167,14.932l-2.274-4.072c-.419-.244,7.314-16.874,9.536-16.742C2444.617,949.654,2444.216,955.279,2444.216,955.279Z" transform="translate(-2406.955 -935.478)"/><path class="d" d="M2294.891,1134.577s-12.875,1.472-13.351,1.728a2.361,2.361,0,0,0-1.158,2.5s6.664.838,10.331.822a24.232,24.232,0,0,0,5.209-.521Z" transform="translate(-2269.717 -1104.401)"/></g><rect class="v" width="242.485" height="0.753" rx="0.376" transform="translate(0 144.26)"/></g></svg>